<svg viewBox="0 0 400 400" xmlns="http://www.w3.org/2000/svg" id="Order-Groceries-Online-2--Streamline-Brooklyn" height="400" width="400"><desc>Order Groceries Online 2 Streamline Illustration: https://streamlinehq.com</desc><path d="M270.72 227.062a65.6 65.6 0 0 1 8.896 5.378 37.728 37.728 0 0 1 9.112 9.56 0.912 0.912 0 0 0 0.878 -0.33 47.024 47.024 0 0 1 18.56 -14.6c0.22 -0.112 0.438 -0.112 0.658 -0.22 0.4 -0.2 1.758 -0.218 1.758 -1.21a67.09 67.09 0 0 1 -11.86 1.978 100.554 100.554 0 0 1 -28.332 -1.2 0.986 0.986 0 0 0 -0.548 0.11c0.218 0.094 0.558 0.314 0.878 0.534Z" fill="#38a1ff" stroke-width="1"></path><path d="M328.6 202.902c0.522 -9.154 1.098 -14.534 1.098 -19 0.11 -7.468 -2.416 -17.68 -10.87 -19.656 -8.786 -2.086 -16.692 5.27 -23.72 9.334a12.514 12.514 0 0 1 -10.762 1.646 0.82 0.82 0 0 1 -0.548 -0.878c0.768 -2.306 1.426 -4.502 2.2 -6.8a5.538 5.538 0 0 1 -7.028 -1.756 8.142 8.142 0 0 1 -0.878 -4.832c0 -1.648 -0.33 -3.954 -2.526 -3.624 -2.306 0.33 -3.732 3.624 -4.942 5.27 -0.878 1.2 -10 12.3 -11.86 14.166 3.4 2.306 6.918 4.502 10.432 6.588a90.574 90.574 0 0 1 4.834 -10.102c0.108 -0.22 0.438 -0.11 0.328 0.11 -3.35 13.216 -11.094 22.256 -13.616 26.354 0.988 0.44 1.758 0.11 2.744 0.768 2.4 2.058 2.142 5.174 2.308 8.126 0 1 -0.112 3.514 1.098 3.954 2.634 0.988 6.588 0.11 9.334 -0.22 7.466 -0.878 14.824 -3.624 22.29 -4.282 1.976 -0.22 3.4 -4.832 3.624 -4.942 -0.22 -0.11 -5.6 -1.756 -7.246 -3.734 -0.66 -0.658 2.634 -3.4 4.72 -10.102a93.348 93.348 0 0 1 5.38 -12.188 18.856 18.856 0 0 1 7.138 -8.566c0.44 -0.22 0.88 0.33 0.55 0.66a43.938 43.938 0 0 0 -9.116 14.384c-2.2 5.272 -3.514 10.872 -7.246 15.484a21.374 21.374 0 0 0 6.8 2.634c8.12 1.754 25.25 1.204 25.48 1.204Z" fill="#38a1ff" stroke-width="1"></path><path d="M283.13 89.69c-0.88 -0.66 -15.924 -11.42 -16.142 -11.64 0 0.988 0.988 21.742 0.878 24.378 4.832 -4.394 9.992 -8.676 15.264 -12.738Z" fill="#38a1ff" stroke-width="1"></path><path d="M31.886 91.336c0.878 0.66 15.922 11.42 16.142 11.64 0 -0.988 -0.988 -21.742 -0.88 -24.378 -4.83 4.402 -9.992 8.676 -15.262 12.738Z" fill="#38a1ff" stroke-width="1"></path><path d="M27.494 195.546a0.4 0.4 0 0 0 -0.11 0.768c41.832 9.508 53.668 12.296 57.506 13.062a9.228 9.228 0 0 0 4.486 -0.02c9.814 -1.55 42.782 -9.79 43.314 -9.968 0.988 -0.218 0.55 -1.866 -0.438 -1.536 -2.012 0.488 -34.922 8.442 -42.282 9.706a10.542 10.542 0 0 1 -5.084 0.018c-11.726 -2.272 -50.174 -12.03 -57.392 -12.03Z" fill="#38a1ff" stroke-width="1"></path><path d="M88.656 214.872a0.33 0.33 0 0 0 -0.658 0c-0.11 2.306 -0.494 11.638 -0.548 14.056 -0.498 21.84 -0.098 21 0.218 21.962a0.616 0.616 0 0 0 1.2 0 12.06 12.06 0 0 0 0.22 -3.4c0.072 -9.608 0.324 -23.556 -0.432 -32.618Z" fill="#38a1ff" stroke-width="1"></path><path d="M127.42 220.8c-3.12 7.562 -7.068 19.298 -7.578 21.084a27.372 27.372 0 0 0 -1.318 4.83c-0.108 0.55 0.66 0.99 0.99 0.44a14.648 14.648 0 0 0 0.878 -1.866c0.244 -0.854 5.21 -16.074 11.2 -30.748 1.2 -3.074 2.526 -6.038 3.624 -9.114a0.374 0.374 0 0 0 -0.66 -0.328c-1.804 3.196 -5.128 10.832 -7.136 15.702Z" fill="#38a1ff" stroke-width="1"></path><path d="M72.624 252.318c20.782 5.538 16.6 5.454 28.88 0.986 11.742 -4.4 12.892 -4.56 16.252 -6.038 0.878 -0.44 0.55 -1.868 -0.438 -1.538 -2.416 0.768 -4.832 1.758 -7.138 2.636 -5.56 2.118 -6.6 2.276 -14.166 5.162a15.242 15.242 0 0 1 -6.918 1.316c-2.416 -0.328 -4.832 -1.2 -7.248 -1.758 -2.416 -0.656 -17.13 -4.5 -22.07 -5.818 -12.73 -3.308 -14.03 -3.26 -17.17 -3.99 -1.84 -4.51 -17.424 -42.91 -17.53 -43.228s-0.66 -0.22 -0.55 0.11c6.306 18.918 21.988 57.154 23.28 59.736 0.22 0.548 0.988 0.66 1.428 0.878 5.27 2.2 10.98 3.186 16.36 4.94 4.832 1.54 10 3.626 15.264 2.858a80.2 80.2 0 0 0 8.236 -2.526c4.088 -1.362 12.102 -3.63 13.616 -3.954a0.858 0.858 0 0 0 0 -1.648 28 28 0 0 0 -7.246 -1.756c-0.66 -0.11 -0.77 0.988 -0.11 1.2 1.426 0.44 2.964 0.768 4.4 1.318 -19.552 5.4 -17.082 6.348 -22.84 5.818 -3.548 -0.294 -6.134 -1.35 -15.044 -4.062 -4.652 -1.3 -4.846 -1.148 -10.322 -2.964a23.754 23.754 0 0 0 -2.416 -0.88c-0.124 -0.33 -2.542 -5.638 -6.26 -14.932 9.766 3.082 19.868 5.498 29.75 8.134Z" fill="#38a1ff" stroke-width="1"></path><path d="M101.834 274.168a4.534 4.534 0 0 0 -2.306 -6.148 5.868 5.868 0 0 0 -5.82 0.77c-4.2 3.076 -3.844 8.26 0.55 10.2 2.086 0.878 5.16 0.77 6.368 -1.426a0.4 0.4 0 0 0 -0.548 -0.55 4.526 4.526 0 0 1 -1.098 0.438 4.738 4.738 0 0 1 -6.6 -2.744c-0.658 -2.966 2.856 -5.928 5.71 -5.49a3.494 3.494 0 0 1 2.746 4.612c-0.32 0.558 0.778 0.998 0.998 0.338Z" fill="#ffffff" stroke-width="1"></path><path d="M77.346 276.036c0.77 0.096 0.768 -1.098 0 -1.2 -4.722 -0.66 -8.346 5.38 -5.38 9.114a6.362 6.362 0 0 0 9.444 0.22c1.646 -1.868 2.086 -5.49 -0.33 -7.028a0.4 0.4 0 0 0 -0.55 0.548c1.318 2.966 0.33 6.59 -3.4 6.8a3.944 3.944 0 0 1 -4.4 -5.38 4.616 4.616 0 0 1 4.616 -3.074Z" fill="#ffffff" stroke-width="1"></path><path d="M56.154 270.984c0.696 -0.234 0.7 -1.316 -0.55 -1.316 -4.502 0 -7.8 5.6 -4.832 9.332a6.25 6.25 0 0 0 5.162 2.2c5.73 -0.414 7.218 -7.2 3.952 -9a0.654 0.654 0 0 0 -0.438 -0.11c-0.55 0.22 0.438 2.416 0.438 2.856a4.508 4.508 0 0 1 -4.172 4.72 4.6 4.6 0 0 1 -4.502 -4.062 3.856 3.856 0 0 1 1.428 -3.294c1.208 -1.11 2.306 -0.776 3.514 -1.326Z" fill="#ffffff" stroke-width="1"></path><path d="M41.438 146.462a30.236 30.236 0 0 0 1.538 8.124c-0.6 0.304 -0.262 0.142 -3.294 8.566 -0.878 2.746 -1.976 5.38 -2.636 8.126a0.544 0.544 0 0 0 0.66 0.658c0.07 0.466 2.834 18.366 3.4 20.644a0.618 0.618 0 0 0 1.2 -0.108 48.748 48.748 0 0 0 -0.77 -5.382c-0.472 -2.682 -0.88 -6.31 -1.756 -10.98 -0.22 -1.428 -0.44 -2.966 -0.66 -4.4 3.532 0 10.104 -1.112 17.35 -1.648 0 0.11 0.11 0.22 0.22 0.33 2.138 10.954 4.11 24.032 4.174 24.378 0.218 1.098 0.108 2.524 0.878 3.4a0.464 0.464 0 0 0 0.768 -0.11 7.176 7.176 0 0 0 -0.11 -3.4c-0.108 -0.6 -0.866 -7.094 -4.282 -24.6 3.424 -1.6 16.744 -8.544 19.106 -9.882l0.11 -0.11c0.25 2.08 2.484 13.834 2.746 15.922 0.166 1.168 0.782 2.512 1.428 1.866 0.548 -0.658 0.218 -1.428 0.108 -2.2 -0.03 -0.248 -2.638 -14.668 -3.118 -16.716 -0.354 -1.506 -0.176 -2.61 -0.724 -3.05 -2.2 -1.646 -4.502 -3.184 -6.698 -4.832 -1.978 -1.426 -3.954 -2.964 -6.04 -4.172a0.832 0.832 0 0 0 0.33 -0.988 22.622 22.622 0 0 1 -1.306 -3.498c-0.036 -0.21 -0.44 -2.388 -0.44 -2.854 0 -0.2 -0.2 -2.01 -1.098 -1.648 -2.346 0.908 -15.514 5.692 -20.534 7.8 -0.378 0.116 -0.55 0.206 -0.55 0.764Zm5.93 23.058c-1.828 0.256 -7.27 0.744 -8.834 1.17 0.766 -1.962 3.838 -10.882 5 -13.906 1.094 1.23 10.6 11.716 10.76 11.968 -2.204 0.22 -4.51 0.432 -6.926 0.768Zm29.876 -10.778c-1.044 0.42 -15.626 8.154 -19.224 10.23a0.904 0.904 0 0 0 -0.658 -0.44c-0.33 0 -0.66 0.11 -1 0.11a27.644 27.644 0 0 0 -2.962 -3.294c-1.098 -1.2 -7.27 -7.866 -9.136 -9.952a152.876 152.876 0 0 0 19.678 -8.056 41 41 0 0 0 6.478 5.05c4.454 3.342 6.012 4.49 6.618 4.876a6.05 6.05 0 0 0 0.206 1.476Zm-14.832 -18.98a13.21 13.21 0 0 0 1.318 6.15c-15.126 7.06 -16.226 6.576 -19.326 8.126 -0.342 -0.684 -1.714 -6.526 -1.868 -7.138 3.364 -1.084 19.664 -7.058 19.876 -7.138Z" fill="#ffffff" stroke-width="1"></path><path d="M279.4 163.372a4.074 4.074 0 0 0 3.622 3.624 16.28 16.28 0 0 0 4.612 -0.88c-0.328 2.2 -1.536 4.722 -1.2 4.942a0.82 0.82 0 0 0 0.88 0 17.078 17.078 0 0 0 1.538 -5.38 6.69 6.69 0 0 0 1.536 -0.77c0.33 -0.218 0.33 -0.988 -0.22 -0.878 -2.212 0.276 -6.982 2.614 -8.564 0.768a4.228 4.228 0 0 1 -0.88 -2.2 46.6 46.6 0 0 1 0.11 -12.956 32.304 32.304 0 0 1 1.098 -7.248c0.11 -0.33 -0.438 -0.44 -0.548 -0.11a23.966 23.966 0 0 0 -1.648 6.698c-0.5 3.582 -1.136 10.882 -0.336 14.39Z" fill="#ffffff" stroke-width="1"></path><path d="M326.504 143.056a125.03 125.03 0 0 1 24.706 4.174c13.318 3.8 28.34 10.386 31.956 23.718 1.974 7.578 0.108 15.374 -1.428 22.84 -1.842 10.1 -3.948 12.81 -4.612 16.582 -0.11 0.658 0.768 1.098 1.098 0.438a25.488 25.488 0 0 0 1.976 -5.05 74.27 74.27 0 0 0 2.856 -9.884c1.536 -7.356 3.4 -15.042 2.2 -22.62 -2.308 -15.044 -17.46 -22.292 -30.418 -26.354a88.548 88.548 0 0 0 -28.33 -4.172c-0.334 -0.11 -0.334 0.328 -0.004 0.328Z" fill="#ffffff" stroke-width="1"></path><path d="M384.374 216.848c-6.488 -4.85 -15.696 -3.374 -23.06 -2.2 -24 3.554 -49.856 7.14 -66.874 23.61 -12.698 12.316 -17.578 31.578 -19.766 49.084 -3.186 -0.55 -6.368 -0.768 -9.664 -1.2 -15.15 -2.104 -33.544 -6.318 -44.034 -8.126a0.28 0.28 0 1 0 -0.108 0.55 402.132 402.132 0 0 0 42.496 8.894 62.132 62.132 0 0 0 11.09 1.098 299.17 299.17 0 0 0 -1.648 45.46c-1.756 -0.328 -3.514 -0.438 -5.27 -0.768 -17.096 -2.564 -44.622 -12.308 -61.934 -18.228 0.22 -1.976 0.332 -4.064 0.442 -6.04a0.348 0.348 0 0 0 -0.66 -0.108c-2.19 9.418 -3.082 28.5 -2.746 36.894a0.824 0.824 0 0 0 1.648 0 285.518 285.518 0 0 1 1.274 -29.644c0.2 0.086 36.6 13.896 60.986 18.334a25.954 25.954 0 0 0 6.48 0.658 52.626 52.626 0 0 0 14.716 6.04c5.612 1.276 9.39 0.016 14.492 -2.416 1.712 -0.836 43.388 -23.166 43.6 -23.278a20.644 20.644 0 0 0 3.954 -2.308 0.558 0.558 0 0 0 0.548 -0.438 27.972 27.972 0 0 1 0.768 -2.856l0.66 -2.964a148.212 148.212 0 0 1 6.148 -19.766c4.636 -12.256 11.356 -26 19.546 -36.236a77.488 77.488 0 0 0 9.774 -12.628c4.168 -7.426 3.968 -16.318 -2.858 -21.418Zm3.294 16.692c-2.514 8.172 -9.836 13.092 -16.142 22.84a169.13 169.13 0 0 0 -21.304 50.4 34.88 34.88 0 0 0 -1.084 5.456c-1.362 0.78 -39.546 21 -44.6 23.754 -4.226 2.212 -6.518 3.8 -11.568 4.142 7.774 -49.2 12.682 -62.768 13.654 -67.4a105.624 105.624 0 0 0 15.634 -2.784 29.754 29.754 0 0 0 8.634 -4.464c1.026 -0.512 4.942 -2.764 6.8 -3.624 15.366 -8 27.51 -11.4 34.042 -14.166 0.11 -0.11 0 -0.218 -0.112 -0.218a99.362 99.362 0 0 0 -16.58 5.05 156.298 156.298 0 0 0 -19.986 9.224 11.6 11.6 0 0 1 1.1 -1.318 17.616 17.616 0 0 0 3.4 -13.946c-2.508 -12.558 -16.842 -17 -25.256 -10.54 -0.438 0.328 -0.108 0.878 0.44 0.658 9.026 -4.628 20.11 -1.35 23.168 9.116a15.632 15.632 0 0 1 -2.304 13.176 24.924 24.924 0 0 1 -10.98 8.894c-4.77 2.118 -13.22 3.506 -17.974 4.2a0.554 0.554 0 0 0 -0.586 0.4 73 73 0 0 0 -3.732 11.31 369.69 369.69 0 0 0 -8.784 43.704 124.514 124.514 0 0 0 -1.6 12.67c-7.372 0 -17.27 -5.8 -18.174 -6.2 0 -6.852 0.91 -25.094 1.2 -29.868 1.236 -19.532 4.52 -44.17 16.472 -59.626 15.73 -20.044 44.43 -24.676 69.95 -28.11 5.38 -0.768 11.088 -1.866 16.47 -0.66 9.228 1.968 12.5 9.156 9.802 17.93Z" fill="#ffffff" stroke-width="1"></path><path d="m230.64 192.252 1.648 -0.33a0.282 0.282 0 0 0 -0.112 -0.548 174.2 174.2 0 0 0 -34.59 6.588c-10.432 3.478 -21.212 9.7 -20.972 20.754 0.22 7.028 4.4 13.504 8.566 18.886 0.768 0.988 1.646 1.756 2.416 2.636h0.108c0.22 1.316 0.44 2.636 0.55 3.844 0.358 2.134 -0.266 3.576 0.33 4.172a0.722 0.722 0 0 0 0.658 0.11c0.658 -0.44 0.55 -1.428 0.55 -2.2a13.71 13.71 0 0 0 -1.2 -6.15 0.488 0.488 0 0 0 0 -0.548c-2.724 -4.086 -9.142 -10.854 -10.322 -19.108a14.744 14.744 0 0 1 4.4 -12.518c10.316 -10.63 36.53 -13.256 47.97 -15.588Z" fill="#ffffff" stroke-width="1"></path><path d="M163.546 320.068c10.734 -0.64 22.64 -1.442 32.4 -5.708 4.722 -2.088 9.444 -5.272 11.75 -10.102a18.252 18.252 0 0 0 -3.074 -20.096 0.7 0.7 0 0 0 -1 0.988 17.346 17.346 0 0 1 3.734 15.372c-3.358 14.05 -25.786 16.766 -40.08 17.682a82.364 82.364 0 0 1 -19.436 -0.55 49.938 49.938 0 0 1 -18 -6.48c-7.158 -4.52 -16.2 -13.848 -16.8 -22.73 -0.458 -7.012 5.24 -13.938 15.264 -15.374a78.162 78.162 0 0 1 13.836 0 0.276 0.276 0 0 0 0 -0.548 73.67 73.67 0 0 0 -9.884 -0.88c-11.89 0 -18.976 6.484 -20.314 13.178a20.038 20.038 0 0 0 3.184 13.836 45.634 45.634 0 0 0 10.762 11.75c10.312 8.126 24.482 10.45 37.658 9.662Z" fill="#ffffff" stroke-width="1"></path><path d="M123.136 352.8c-0.372 -2 -0.93 -6.218 -2.744 -15.6 -2.016 -10.588 -4.724 -24.502 -7.468 -32.504 -0.11 -0.22 -0.328 -0.11 -0.328 0.11 0.988 7.026 2.634 13.946 4.062 20.864 3.886 18.832 4.878 29.4 5.272 30.966a8.368 8.368 0 0 0 0.548 1.536 0.504 0.504 0 0 0 0.988 -0.108 5.72 5.72 0 0 0 -0.11 -2.636 10.688 10.688 0 0 0 -0.22 -2.628Z" fill="#ffffff" stroke-width="1"></path><path d="M107.654 138.226a0.746 0.746 0 0 0 0.768 0.768c23.272 0.2 74.69 0.588 96.742 -0.768a0.86 0.86 0 0 0 0.768 -1.098 170.444 170.444 0 0 1 -1.426 -36.678c0.438 -12.4 2.744 -58.2 2.744 -58.2 0 -0.44 -0.438 -0.878 -0.768 -0.768 -37.302 2.352 -70.77 1.426 -93.558 1.426a0.714 0.714 0 1 0 0 1.428c30.54 0.546 62.516 0.92 92.8 -1.098 -2.622 58.184 -4.458 70.988 -1.428 93.338 -12.298 0.44 -24.488 0.878 -36.786 0.988 -12.518 0.11 -51.39 -0.11 -58.308 -0.22 0.218 -12.188 1.756 -87.518 1.866 -94.544a0.77 0.77 0 0 0 -1.538 0c-0.448 12.41 -1.766 88.504 -1.876 95.426Z" fill="#ffffff" stroke-width="1"></path><path d="M208.348 58.614c5.316 0.366 12.786 0 18.888 0 9.354 -0.164 20.184 -0.636 28.77 -1.2 0.5 13.514 -2.2 50.422 -0.988 64.568 -24.864 1.332 -40.24 0.982 -47.438 1.2a0.824 0.824 0 1 0 0 1.646c27.2 0 46.012 -1.022 48.426 -1.098a0.866 0.866 0 0 0 0.878 -0.878c-1.316 -14.48 1.568 -54.262 0.878 -66.324a0.866 0.866 0 0 0 -0.878 -0.88c-12.628 0.66 -44.91 1.538 -48.424 1.758a0.612 0.612 0 0 0 -0.112 1.208Z" fill="#38a1ff" stroke-width="1"></path><path d="M56.922 124.17c16.2 0.262 28.748 2.536 46.888 0.658 0.988 -0.11 0.988 -1.646 0 -1.536 -11.64 1.2 -23.17 0.438 -34.8 -0.11 -3.844 -0.22 -7.578 -0.33 -11.42 -0.55 -0.18 -27.216 0.214 -45.284 0.658 -63.908 38.4 -0.326 44.684 -0.148 49.964 -0.77 0.438 -0.108 0.218 -0.658 -0.11 -0.658a74.228 74.228 0 0 0 -9.884 -0.33s-37 0.11 -40.738 0.22a0.752 0.752 0 0 0 -0.77 0.768C56 85.2 56.154 123.6 56.154 123.4a0.756 0.756 0 0 0 0.768 0.77Z" fill="#38a1ff" stroke-width="1"></path><path d="M214.828 86.614c-0.33 -0.11 -3.294 -1.866 -2.746 -0.11 0.22 0.88 1.318 1.318 2.2 1.538a5.346 5.346 0 0 0 2.636 0c6.01 -1.502 5.63 -10.904 -0.22 -12.4a5.438 5.438 0 0 0 -2.964 0.11c-0.77 0.22 -1.976 0.878 -1.868 1.866 0 0.11 0.22 0.22 0.33 0.22 0.88 0.11 1.866 -0.878 2.744 -0.878a4.332 4.332 0 0 1 4.064 2.526c1.632 3.26 -1.084 8.16 -4.176 7.128Z" fill="#38a1ff" stroke-width="1"></path><path d="M210.106 90.678a4.128 4.128 0 0 0 1.428 6.478c4.36 2.182 10.352 -1.664 9.772 -6.038 -0.22 -1.098 -1.098 -0.22 -1.318 0.218 -0.66 1.1 -0.768 2.416 -1.646 3.296 -2.2 2.19 -6.076 2.19 -7.468 0a3.186 3.186 0 0 1 -0.11 -3.4c0.33 -0.444 -0.328 -0.884 -0.658 -0.554Z" fill="#38a1ff" stroke-width="1"></path><path d="M224.27 93.424c-0.878 0.11 -0.658 1.646 0.22 1.646a7.444 7.444 0 0 0 6.26 -5.16 5.954 5.954 0 0 0 -3.4 -7.468 3.718 3.718 0 0 0 -4.284 1.098c-0.328 0.33 0.222 0.77 0.55 0.55a4.118 4.118 0 0 1 4.064 0c4.278 2.854 0.544 8.564 -3.41 9.334Z" fill="#38a1ff" stroke-width="1"></path><path d="M220.098 105.502a7.4 7.4 0 0 0 8.456 -3.624 5.422 5.422 0 0 0 0.878 -2.2 3.676 3.676 0 0 0 0.11 -2.416 0.744 0.744 0 0 0 -1.428 0c-0.988 3.514 -2.306 7.688 -7.028 7.028a3.154 3.154 0 0 1 -2.744 -2.526 0.496 0.496 0 0 0 -1 0 3.952 3.952 0 0 0 2.756 3.738Z" fill="#38a1ff" stroke-width="1"></path><path d="M209.556 107.368a5.066 5.066 0 0 0 6.918 -2.086c0.22 -0.658 -0.768 -1.318 -1.2 -0.768a4.426 4.426 0 0 1 -3.624 1.866c-0.986 -0.11 -3.732 -1.428 -2.634 -2.854 0.33 -0.44 -0.22 -1.098 -0.66 -0.66 -1.656 1.428 -0.336 3.734 1.2 4.502Z" fill="#38a1ff" stroke-width="1"></path><path d="M231.958 101.988c-0.438 -0.11 -0.768 0.55 -0.33 0.768 4.386 2.2 9.882 -2.926 9.882 -6.918a5.88 5.88 0 0 0 -5.27 -6.038 3.914 3.914 0 0 0 -1.2 0.328c-0.442 0.22 -0.22 0.77 0.108 0.88a7.262 7.262 0 0 1 4.064 2.086 4.186 4.186 0 0 1 0.328 4.502c-1.432 2.746 -4.508 5.162 -7.582 4.392Z" fill="#38a1ff" stroke-width="1"></path><path d="M234.154 81.014c-0.664 0.2 -1.536 0.44 -1.648 1.098 0 0.22 0 0.55 0.22 0.66 0.878 0.438 2.088 -0.33 2.964 -0.44a4.6 4.6 0 0 1 3.844 1.428 1.958 1.958 0 0 1 -0.108 2.854 0.518 0.518 0 0 0 0.548 0.88 2.938 2.938 0 0 0 1.648 -2.636c-0.112 -3.514 -4.742 -4.678 -7.468 -3.844Z" fill="#38a1ff" stroke-width="1"></path><path d="M229.322 72.56a7.74 7.74 0 0 0 -7.466 3.734 0.556 0.556 0 0 0 0.878 0.658 8.488 8.488 0 0 1 5.928 -2.856 3 3 0 0 1 2.966 2.416c0.11 0.44 -0.11 0.988 0.328 1.428a0.678 0.678 0 0 0 0.66 0.11c1.318 -0.55 0.55 -2.636 0 -3.4a5.318 5.318 0 0 0 -3.294 -2.09Z" fill="#38a1ff" stroke-width="1"></path><path d="M241.29 74.426a32.982 32.982 0 0 0 5.822 -7.686 0.8 0.8 0 0 0 -0.66 -1.2 13.8 13.8 0 0 1 -2.964 -0.44 0.77 0.77 0 0 0 -0.988 0.77 15.012 15.012 0 0 1 -1.976 6.148c-1.744 3.138 -3.248 3.638 -4.064 4.942 -0.22 0.33 -0.44 1.2 0.33 0.988 2.106 -0.582 3.61 -2.854 4.5 -3.522Z" fill="#38a1ff" stroke-width="1"></path><path d="M182 65.312a11.542 11.542 0 0 1 -2.086 3.074 0.6 0.6 0 0 0 -0.548 -0.328c-4.064 0.548 -6.918 4.282 -9.114 7.466A52.144 52.144 0 0 1 162.12 85.4a47.074 47.074 0 0 1 -29.54 13.068 32.322 32.322 0 0 1 -4.94 0c-1.776 0 -2.496 -0.58 -4.2 0.454a9.098 9.098 0 0 0 -2.82 2.73c-1.228 1.844 -0.968 1.528 -0.66 3.076a15.942 15.942 0 0 0 4.722 8.236c16.072 18.262 54.838 12.364 66.434 -17.79 2.746 -6.918 4.174 -15.374 0.77 -22.292a18.16 18.16 0 0 0 -1.538 -2.416c2.08 -8.916 1.75 -11.928 -2.854 -19.984 -0.33 -0.66 -1.2 -0.33 -1.318 0.33a7.4 7.4 0 0 1 -2.856 4.612c-0.632 0.63 0.37 1.19 0.2 4.652a11.428 11.428 0 0 1 -1.52 5.236Zm2.306 -9.224a9.182 9.182 0 0 0 2.416 -3.514c3.564 6.532 3.4 9.906 1.538 17.898a0.832 0.832 0 0 0 0.33 0.88c4.4 5.93 3.514 14.054 1.318 20.754C182.6 114.772 157.684 126.4 137.522 119.448c-6.26 -2.2 -13.946 -7.138 -16.142 -13.836a3.036 3.036 0 0 1 0.016 -2.734c0.704 0.382 1.73 1.4 2.95 2.074a24.8 24.8 0 0 0 10.212 3.848c15.442 2.458 29.694 -5.2 40.3 -16.142 3.732 -3.952 7.246 -8.784 7.8 -14.274 0.11 -0.77 -1.2 -0.88 -1.318 -0.22 -1.9 9.08 -9.98 16.582 -17.57 21.852a41.83 41.83 0 0 1 -27.326 7.684c-7.718 -0.734 -13.972 -4.576 -14.63 -5.572a4.722 4.722 0 0 1 2.312 -2 8.958 8.958 0 0 1 4.172 0.11h3.184a45.496 45.496 0 0 0 18.668 -4.722 49.712 49.712 0 0 0 19.436 -16.8 52.2 52.2 0 0 1 4.064 -5.6 13.184 13.184 0 0 1 5.6 -3.844c0.11 0.33 0.548 0.66 0.878 0.44 4.046 -2.608 5.418 -8.894 4.172 -13.624Z" fill="#ffffff" stroke-width="1"></path><path d="M72.186 100.122a17.296 17.296 0 0 0 20.754 10.76 22.058 22.058 0 0 0 6.698 -3.184 12.962 12.962 0 0 0 4.832 -5.71c0.22 -0.44 -0.44 -1.098 -0.77 -0.658 -0.658 0.768 -1.426 1.426 -2.086 2.2a19.878 19.878 0 0 1 -2.2 2.086c-14.464 11.364 -31.286 -2.978 -24.816 -17.13 2.2 -4.722 6.368 -7.8 10.65 -10.432a0.212 0.212 0 0 0 -0.108 -0.33c-9.22 2.632 -16.106 13.052 -12.954 22.398Z" fill="#38a1ff" stroke-width="1"></path><path d="M92.94 76.184a15.078 15.078 0 0 1 5.49 0.328c0.548 0.11 1.428 0.44 1.538 -0.328 0.218 -0.77 -0.88 -1.1 -1.428 -1.2a11.556 11.556 0 0 0 -5.82 -0.11 6.024 6.024 0 0 0 -1.866 0.988 0.296 0.296 0 0 0 0.218 0.548c0.66 -0.118 1.208 -0.118 1.868 -0.226Z" fill="#38a1ff" stroke-width="1"></path><path d="M89.2 79.698c-0.53 -5.6 -5.93 -10.104 -6.478 -10.432a0.84 0.84 0 0 0 -0.99 1.318c0.44 0.438 6.6 5.818 6.7 12.518a2.86 2.86 0 0 1 -2.306 -0.22c-0.66 -0.33 -1.318 0.548 -0.77 0.988 3.186 2.2 6.6 -0.988 6.7 -1.318a0.81 0.81 0 0 0 -0.77 -0.988c-0.548 0 -1.976 1.098 -2.2 1.2a10.226 10.226 0 0 0 0.114 -3.066Z" fill="#38a1ff" stroke-width="1"></path><path d="M75.48 199.4c-0.11 0.548 0.768 0.988 0.988 0.438 2.52 -5.8 2.932 -8.726 12.298 -30.416 2.044 2.042 10.026 8.692 10.136 8.8 -6.486 11.672 -10.068 19.942 -11.014 21.834a8.786 8.786 0 0 0 -0.988 3.294c0 0.33 0.438 0.55 0.658 0.33a8.2 8.2 0 0 0 1.758 -2.966c2.934 -6.6 7.38 -15.506 10.98 -21.852 0.556 0 24.978 2.652 29.978 2.2 -3.152 7.182 -6.6 14.288 -7.466 16.252 -0.44 0.88 0.878 1.758 1.426 0.77 2.416 -4.722 4.502 -9.554 6.7 -14.386 0.438 -0.988 0.878 -1.866 1.316 -2.854 0.11 -0.33 0.22 -0.77 -0.108 -0.99 -2.746 -2.2 -9.334 -7.356 -9.774 -7.686a1.462 1.462 0 0 0 -0.878 -0.33c-4.83 -0.878 -22.882 -3.552 -32.834 -4.612a0.9 0.9 0 0 0 -0.658 0.44c-3.624 8.126 -7.028 16.362 -10.102 24.818A56.242 56.242 0 0 0 75.48 199.4ZM121.2 173.186c4.11 3.482 7.556 6.084 7.98 6.438 -0.528 0 -8.514 -0.6 -9.114 -0.66 -7.098 -0.578 -14.912 -1.426 -19.656 -1.426 -2 -1.742 -8.284 -7.142 -10.432 -8.676 18.248 1.848 21.798 3.016 31.222 4.324Z" fill="#ffffff" stroke-width="1"></path><path d="M104.58 166.336c1.316 -5.27 1.536 -11.75 -3.186 -15.372 -4.4 -3.514 -10.65 -1.318 -14.6 1.756a13.71 13.71 0 0 0 -4.832 6.588 0.248 0.248 0 0 0 0.44 0.22 12.294 12.294 0 0 1 2.086 -2.636 16.886 16.886 0 0 1 8.122 -5.492c5.266 -1.676 9.35 0.4 10.762 5.49a18.384 18.384 0 0 1 -0.44 9.11c-0.332 0.886 1.318 1.324 1.648 0.336Z" fill="#ffffff" stroke-width="1"></path><path d="M11.352 184.454a17.184 17.184 0 0 0 4.062 -0.548c0.8 0 3.102 2.4 4.502 3.624a31.756 31.756 0 0 1 4.284 5.82c0.328 0.658 1.2 0.11 0.988 -0.55a24.38 24.38 0 0 0 -7.358 -9.444c2.512 -0.558 9.626 -2.218 12.08 -2.854 1.316 -0.33 4.4 -0.55 4.4 -2.416 0 -2.2 -2.856 -1.428 -4.064 -1.098 -3.074 0.768 -6.148 1.538 -9.334 2.2 -1.646 0.44 -3.4 0.768 -5.05 1.2a21.032 21.032 0 0 0 -5.272 1.648 1.328 1.328 0 0 0 0.762 2.418Z" fill="#38a1ff" stroke-width="1"></path><path d="M224.71 252.646c12.124 -7.844 23.558 -19.282 33.272 -21.962a0.374 0.374 0 0 1 0.33 0.66 106.412 106.412 0 0 0 -9.664 5.82c-10.562 7.168 -20.306 18 -43.264 27.67 -0.2 0.086 -29.888 11.92 -30.088 11.97 3.076 4.172 1.868 8.894 2.2 9 2.2 0.328 7.138 1.2 7.468 1.098 1.756 -0.112 35.028 -10.982 50.072 -15.484 7.578 -2.2 16.69 -5.052 23.94 -8.016a85.258 85.258 0 0 0 27.562 -18.448c2.086 -2.966 -6.48 -10.542 -11.97 -13.726 -4.282 -2.416 -13.508 -8.236 -13.946 -8.676 -0.22 0.112 -12.958 4.612 -19.876 -0.986 -0.55 0.218 -26.574 14.274 -31.076 16.908a301.574 301.574 0 0 1 -32.722 17.24c-0.55 0.22 -0.55 0.99 -0.22 1.428 3.184 3.734 6.368 8.786 4.942 13.838a150.246 150.246 0 0 0 43.04 -18.334Z" fill="#ffffff" stroke-width="1"></path><path d="M246.672 215.2a0.4 0.4 0 0 0 0.22 -0.548c-0.534 -1.244 -2.416 -0.778 -5.82 -4.942a23.748 23.748 0 0 1 -1.538 -1.976 0.296 0.296 0 0 0 -0.548 0.22c1.354 4.744 6 7.672 7.686 7.246Z" fill="#ffffff" stroke-width="1"></path><path d="M244.318 216.498a15.84 15.84 0 0 1 -3.904 -3.494 15.4 15.4 0 0 1 -1.2 -1.646 0.374 0.374 0 0 0 -0.66 0.33c0.4 1.73 2.984 6.1 5.456 5.946 0.762 -0.048 1.25 -0.466 0.308 -1.136Z" fill="#ffffff" stroke-width="1"></path><path d="M245.904 196.644c-0.88 -0.438 -1.648 0.658 -1.536 1.648 0.108 0.768 0.876 1.756 1.754 1.536 1.508 -0.41 0.812 -2.672 -0.218 -3.184Z" fill="#ffffff" stroke-width="1"></path><path d="M238.546 187.42c-1.212 -0.2 -3.076 0.22 -2.854 1.756 0.108 1.648 7.138 15.6 8.236 17.9 -2.29 -2.284 -2.4 -3.252 -3.624 -4.064a0.372 0.372 0 0 0 -0.55 0.33 4.848 4.848 0 0 0 1.2 2.636 17.966 17.966 0 0 0 10.98 7.138c5.6 0.986 9.572 -2.47 9 -5.162 -0.22 -0.768 -0.878 -1.318 -1.428 -0.33 -0.11 -0.438 -5.16 -12.298 -5.6 -13.176a4.6 4.6 0 0 0 -2.744 -2.416c-2.622 -1.098 -11.082 -4.364 -12.616 -4.612Zm7.138 21.2c-1.318 -3.074 -6.8 -15.482 -8.236 -18.666a88.612 88.612 0 0 1 13.508 5.27c0.218 0.22 5.82 14.386 6.588 15.484 -0.2 0.006 -5.208 3.232 -11.86 -2.096Z" fill="#ffffff" stroke-width="1"></path><path d="M264.132 223.328a38.316 38.316 0 0 0 8.016 2.2 90.438 90.438 0 0 0 23.498 0.768c7.318 -0.6 17.11 -1.72 22.952 -6.15a22.854 22.854 0 0 0 6.8 -9.114 8.416 8.416 0 0 0 0.986 -3.952 0.512 0.512 0 0 0 -0.986 -0.22c-0.946 1.702 -0.692 2.364 -2.856 6.26 -3.468 5.894 -7.8 8.014 -14.384 9.662a107.78 107.78 0 0 1 -25.8 2.2 141.898 141.898 0 0 1 -18 -2.306c-0.446 0.102 -0.558 0.542 -0.226 0.652Z" fill="#ffffff" stroke-width="1"></path><path d="M305.09 203.562c0.11 -0.22 -0.878 -0.77 -1.098 -0.44a51.95 51.95 0 0 0 -2.856 5.382c0 0.306 0.4 -0.182 -4.72 0.548 -8.61 1.124 -23.552 6.164 -30.856 4.172 0.11 0 -0.44 -2.634 -0.44 -2.744a40.818 40.818 0 0 1 -0.878 -6.26 3.168 3.168 0 0 0 -2.416 -3.074 16.674 16.674 0 0 0 -2.306 -0.33c-0.22 0 -2.526 -0.548 -1.758 0.44a3.826 3.826 0 0 0 3.516 1.2c1.8 0 1.358 1.69 1.536 2.744a36.148 36.148 0 0 0 1.2 6.918c0.292 0.874 0.44 1.888 1.326 2.336a14.372 14.372 0 0 0 6.69 0.52c8.52 -0.356 15.738 -2.846 23.17 -3.954 5.86 -0.9 6.534 -0.468 8.784 -0.988 0.55 -0.11 0.438 -0.878 0 -0.988s-0.768 -0.11 -1.2 -0.22c0.11 -0.424 2.196 -4.824 2.306 -5.262Z" fill="#ffffff" stroke-width="1"></path><path d="M285.874 145.472c0 -0.11 -0.22 -0.218 -0.22 0a49.358 49.358 0 0 0 -1.2 7.906c-0.11 1 -0.438 2.856 1.098 2.746a4.232 4.232 0 0 0 3.186 -1.318c0.328 -0.438 -0.222 -0.988 -0.77 -0.878 -0.768 0.11 -1.426 0.658 -2.2 0.768a62.2 62.2 0 0 0 0.106 -9.224Z" fill="#ffffff" stroke-width="1"></path><path d="M289.6 148.108c0.54 0.884 1.536 0 1.646 -0.768a0.952 0.952 0 0 0 -1.426 -0.988c-0.542 0.218 -0.546 1.21 -0.22 1.756Z" fill="#ffffff" stroke-width="1"></path><path d="M279.944 139.104c2.298 3.73 8.53 3.332 12.628 1.866 1.428 -0.548 2.966 -1.866 4.504 -1.428 5.38 1.538 1.098 11.53 0.218 14.934 -0.11 0.44 0.44 0.66 0.768 0.33 1.648 -2.306 3.4 -7.8 6.8 -5.49 3.624 2.526 -0.656 7.906 -5.05 6.8 -0.988 -0.22 -1.428 1.318 -0.44 1.538a5.4 5.4 0 0 0 1.868 0.11 27.63 27.63 0 0 0 -1.868 6.038 15.852 15.852 0 0 0 -0.656 4.812c0.2 1.466 0.852 1.986 1.556 0.116a64.548 64.548 0 0 0 2.176 -10.966 7.182 7.182 0 0 0 4.83 -3.514 4.358 4.358 0 0 0 -2.2 -6.37 25.104 25.104 0 0 0 0.77 -3.074 3.734 3.734 0 0 0 3.4 -2.856c0.218 -0.658 -0.11 -4.502 -1.538 -3.624 -0.33 0.22 -0.218 0.77 0 1.098a2.8 2.8 0 0 1 -1.538 3.734c0 -1.772 1.118 -7.068 -2.854 -10.212 -4.058 -3.188 -15.908 -4.174 -21.524 0.11a4.6 4.6 0 0 0 -1.85 6.048Z" fill="#ffffff" stroke-width="1"></path><path d="M285.764 160.4c2.528 1.682 7.094 -1.356 7.356 -4.282a0.71 0.71 0 0 0 -1.2 -0.438c-0.548 0.658 -0.77 1.426 -1.318 2.086a5.882 5.882 0 0 1 -4.612 2.086 0.354 0.354 0 0 0 -0.226 0.548Z" fill="#ffffff" stroke-width="1"></path><path d="M238.546 144.044c-1.064 8.29 6.26 15.6 12.848 20.754a30.934 30.934 0 0 0 8.126 4.942c0.438 0.11 0.77 -0.44 0.438 -0.658a111.444 111.444 0 0 1 -12.628 -10c-3.624 -3.514 -7.026 -7.8 -7.246 -13.066a9.926 9.926 0 0 1 6.588 -10c7.24 -3.2 15.28 -2.232 23.06 -0.878a23.378 23.378 0 0 0 7.8 0.988 0.538 0.538 0 0 0 0.112 -0.988 15.898 15.898 0 0 0 -4.4 -0.988c-4.568 -0.652 -16.972 -3.91 -26.354 0a12.548 12.548 0 0 0 -8.344 9.894Z" fill="#ffffff" stroke-width="1"></path><path d="M272.368 147.668a21.45 21.45 0 0 0 6.478 -1.536 0.352 0.352 0 0 0 -0.22 -0.66 32.548 32.548 0 0 0 -6.478 0.77c-2.2 0.328 -4.4 0.438 -6.588 0.548 -6.454 0.324 -9.468 -0.4 -13.178 -0.22 -0.328 0 -0.328 0.44 -0.11 0.55a22.424 22.424 0 0 0 6.588 1.098 62.666 62.666 0 0 0 13.508 -0.55Z" fill="#ffffff" stroke-width="1"></path><path d="M309.154 145.362c-0.66 0.88 -1.978 0.66 -2.086 1.2 -0.222 0.988 1.098 0.77 2.2 0.22 0.988 -0.548 2.636 -3.074 1.318 -3.294a0.562 0.562 0 0 0 -0.55 0.44c-0.224 0.446 -0.664 0.996 -0.882 1.434Z" fill="#ffffff" stroke-width="1"></path><path d="M310.69 147.888a3.572 3.572 0 0 1 -1.646 1.2 0.6 0.6 0 0 0 0 1.098 2.638 2.638 0 0 0 1.646 -0.44 3.36 3.36 0 0 0 1.428 -2.524c0 -0.55 -0.548 -0.55 -0.768 -0.22a2.322 2.322 0 0 0 -0.66 0.886Z" fill="#ffffff" stroke-width="1"></path><path d="M311.68 150.964c-0.66 0.768 -0.66 1.2 -1.978 1.536 -0.33 0.11 -0.768 0.33 -0.768 0.77a0.734 0.734 0 0 0 0.768 0.658 2.826 2.826 0 0 0 2.416 -1.538c0.564 -0.842 0.138 -2.004 -0.438 -1.426Z" fill="#ffffff" stroke-width="1"></path><path d="M204.286 237.162a18.726 18.726 0 0 0 0.768 -3.182c0.11 -1.098 0.22 -2.2 0.22 -3.294 0 -7.6 -4.054 -16.566 -10.76 -17.9a4.556 4.556 0 0 0 -3.4 0.218c-0.33 0.112 -0.55 0.77 0 0.88a14.774 14.774 0 0 1 6.476 2.306c3.556 2.716 5.756 8.4 6.152 12.956a30.2 30.2 0 0 1 -0.22 7.688c-0.004 0.548 0.644 0.766 0.764 0.328Z" fill="#ffffff" stroke-width="1"></path><path d="M247.55 184.126a3.476 3.476 0 0 0 0.44 -1.758c0 -0.768 0.11 -1.428 0.11 -2.2 0.54 -6.966 1.3 -7.822 1.866 -12.738 0 -0.22 -0.33 -0.44 -0.44 -0.22a39.488 39.488 0 0 0 -3.184 14.824c0 1.478 -0.064 1.218 0.44 1.978 0.11 0.442 0.548 0.442 0.768 0.114Z" fill="#ffffff" stroke-width="1"></path><path d="M340.668 213.336a181.26 181.26 0 0 1 5.162 -24.158 75.862 75.862 0 0 1 9.552 -20.2 106.85 106.85 0 0 1 7.688 -9.444c0.22 -0.22 -0.11 -0.66 -0.328 -0.438a32.8 32.8 0 0 0 -7.688 7.906c-7.126 9.62 -10.91 20.058 -13.616 32.064a86.68 86.68 0 0 0 -2.086 14.056c0.108 0.652 1.2 0.878 1.316 0.214Z" fill="#ffffff" stroke-width="1"></path><path d="M150.04 253.524c-5.246 -4.29 -10.182 -3.062 -11.31 0 -2.526 6.48 5.16 12.3 8.236 17.022a26.678 26.678 0 0 1 3.184 6.698c1.446 4.338 0.522 7.452 2.964 10.87a53.978 53.978 0 0 0 -10.212 -1.866 45.268 45.268 0 0 0 -10.87 0.658 0.4 0.4 0 0 0 0.11 0.77A52.502 52.502 0 0 1 167.72 296.8c2.854 2.086 5.49 4.502 8.126 6.8 0.438 0.33 1.098 -0.11 0.768 -0.55 -0.44 -0.658 -0.878 -1.2 -1.318 -1.866a46.73 46.73 0 0 0 -12.848 -9.554 43.786 43.786 0 0 1 13.288 -2.744c8.262 -0.36 11.102 1.48 14.934 1.646a0.416 0.416 0 0 0 0.22 -0.768c-4.898 -3.264 -20.688 -4.064 -29.978 1.098a17.646 17.646 0 0 1 -4.4 -2.086c-3.946 -2.154 -3.326 -7 -4.282 -10.982a28.94 28.94 0 0 0 -6.148 -11.42c-2.306 -2.744 -5.052 -5.6 -5.82 -9.334 -0.55 -2.306 0.218 -4.722 2.854 -4.94 7.78 -0.41 14.042 13.946 16.252 13.946a20.266 20.266 0 0 0 0.768 2.744c2.444 7.942 6.4 9.07 14.166 6.588a33.352 33.352 0 0 0 7.906 -3.294 0.482 0.482 0 0 0 -0.33 -0.878c-3.294 0.768 -6.368 2.2 -9.662 2.964 -6.268 1.568 -8.022 0.122 -9.774 -3.732 -1.536 -3.4 -1.976 -7.248 -3.184 -10.762 -2 -5.488 -5.444 -11.37 -7.028 -15.6a8.272 8.272 0 0 1 -0.878 -5.6 2.6 2.6 0 0 1 1.318 -1.536 2.434 2.434 0 0 1 2.416 0.33c5.218 3.354 9.122 18.65 19.984 20.534 0.988 0.218 1.428 -1.318 0.44 -1.538 -7.906 -1.648 -11.31 -9.772 -15.484 -15.702 -1.756 -2.416 -5.05 -7.138 -8.564 -4.832 -5.216 3.422 1.244 12.438 5 21.39 2.136 5.086 1.904 5.242 2.024 6.062a72.6 72.6 0 0 0 -8.446 -9.66Z" fill="#ffffff" stroke-width="1"></path><path d="M250.83 223.044a31.89 31.89 0 0 0 7.702 -1.254c0.548 -0.22 1.2 -0.33 1.758 -0.55a3.438 3.438 0 0 0 1.646 -0.878c0.11 -0.11 0.11 -0.22 0.218 -0.438a0.696 0.696 0 0 0 -0.548 -0.66 4.4 4.4 0 0 0 -1.648 0.33c-0.548 0.22 -1.2 0.33 -1.756 0.548 -6.4 1.922 -12.714 1.824 -17.79 -2.524a18.678 18.678 0 0 1 -2.084 -2.088c-0.22 -0.218 -0.55 0 -0.44 0.22a9.18 9.18 0 0 0 1.538 2.636 14.646 14.646 0 0 0 11.404 4.658Z" fill="#ffffff" stroke-width="1"></path></svg>