<svg xmlns="http://www.w3.org/2000/svg" fill="none" viewBox="-0.5 -0.5 200 200" id="Fixing-Bugs--Streamline-Bangalore.svg" height="200" width="200"><desc>Fixing Bugs Streamline Illustration: https://streamlinehq.com</desc><g id="Development-Fixing-bugs-01"><g id="color 2"><path id="Vector" fill="#fecfc4" d="M181.65516000000002 164.17997499999998c1.1183800000000002 -0.775105 1.86662 -1.47658 1.6915 -1.877565l-28.338595 -47.772935c-0.90744 -9.686325 -10.16094 -17.676175 -11.0445 -17.676175 -10.92908 -1.268625 -27.04211 2.3193449999999998 -37.710499999999996 4.975 -2.8934599999999997 0.73033 -5.50434 2.305415 -7.500907 4.52327 -1.9962685 2.2188499999999998 -3.287679 4.98097 -3.7098575 7.935124999999999l-3.913335 27.71473 1.911395 0.12935 -0.8139099999999999 5.771c1.3989699999999998 1.194 4.55511 3.2506649999999997 11.323199500000001 3.0238050000000003 0.377105 -3.1123600000000002 0.773115 -6.319245 1.00097 -8.02368l1.551205 0.0995 4.4775 -24.61431s20.45521 -0.47262499999999996 25.691895000000002 -0.47262499999999996c2.4098900000000003 0 5.86055 -1.7313 7.92219 -4.3979l-5.04863 8.916195c8.185865 12.8554 29.170415 45.882435 29.4918 46.61973 0.27760500000000005 0.627845 1.453695 0.51541 2.74819 0.16318000000000002l2.9233100000000003 4.71431c4.096415 1.173105 8.440585 1.173105 12.536999999999999 0l-5.18992 -9.750005Z" stroke-width="1"></path><path id="Vector_2" fill="#fecfc4" d="M32.254915000000004 136.74285c-0.243576 0.000995 -0.482973 -0.062685 -0.693913 -0.18506999999999998 -0.21094 -0.12139 -0.38596050000000004 -0.29651 -0.507251 -0.50745 -0.1212905 -0.21193499999999998 -0.184473 -0.450735 -0.18317950000000002 -0.69451 0.001194 -0.243775 0.06686399999999999 -0.482575 0.1903435 -0.6925199999999999l8.110244999999999 -14.046415000000001c0.12119100000000001 -0.21094 0.2960125 -0.38705500000000004 0.506853 -0.508445 0.21074099999999998 -0.122385 0.45003849999999995 -0.18706 0.6936145 -0.18706 0.243576 0 0.4828735 0.064675 0.6936145 0.18706 0.21084050000000001 0.12139 0.385662 0.29750499999999996 0.506853 0.508445l8.110244999999999 14.046415000000001c0.1214895 0.209945 0.185667 0.448745 0.1859655 0.691525 0.000398 0.24278 -0.063083 0.48158 -0.18397550000000001 0.6925199999999999 -0.120992 0.209945 -0.29511699999999996 0.385065 -0.5049625 0.50745 -0.209945 0.122385 -0.44814800000000005 0.18706 -0.6910275 0.188055H32.254915000000004Z" stroke-width="1"></path><path id="Vector_3" fill="#fecfc4" d="M169.694265 64.52574999999999c-5.161065000000001 -1.81488 -9.168925 -4.367055000000001 -10.038555 -6.23865l1.871595 17.865225c0.074625 0.7045594999999999 0.343275 1.374493 0.7780900000000001 1.9343795 0.43382 0.5598865 1.015895 0.987637 1.67956 1.2350935 0.6636650000000001 0.2474565 1.38305 0.30486800000000003 2.07756 0.165767 0.6955049999999999 -0.139101 1.33728 -0.46914249999999996 1.85468 -0.95321l13.403645 -12.536999999999999c-1.92831 0.834805 -6.560035 0.305465 -11.626575 -1.471605Z" stroke-width="1"></path><path id="Vector_4" fill="#fecfc4" d="M44.0326305 78.81793c0 0.7216735 -0.213925 1.4270289999999999 -0.61491 2.0271135 -0.4008855 0.599985 -0.970722 1.067635 -1.6374715 1.343847 -0.6666500000000001 0.27611250000000004 -1.4002634999999999 0.34834950000000003 -2.1081065 0.20755700000000002 -0.7077435000000001 -0.1407925 -1.3578765 -0.4882465 -1.8681124999999998 -0.9984825 -0.5103355 -0.5103355 -0.8577895 -1.1604685 -0.9985820000000001 -1.868212 -0.1407925 -0.7077435000000001 -0.0685555 -1.441357 0.2076565 -2.1081065 0.27611250000000004 -0.6667495 0.7437625000000001 -1.236586 1.3437475 -1.6374715 0.6000845 -0.4008855 1.3055395 -0.61491 2.0271135 -0.61491 0.967538 0.0004975 1.895276 0.385065 2.579438 1.069227s1.0687295 1.6119 1.069227 2.579438Z" stroke-width="1"></path><path id="Vector_5" fill="#fecfc4" d="M46.0365605 88.11919c0 0.198204 -0.0588045 0.39193049999999996 -0.1688515 0.5567025 -0.11014650000000001 0.164772 -0.26656050000000003 0.29312699999999997 -0.4496405 0.3690455 -0.18308 0.075819 -0.3845675 0.09561950000000001 -0.5788909999999999 0.057013499999999995 -0.19442299999999998 -0.0387055 -0.37292600000000004 -0.134126 -0.5131215 -0.274222 -0.140096 -0.1401955 -0.2355165 -0.3186985 -0.27412250000000005 -0.513022 -0.0387055 -0.19442299999999998 -0.018904999999999998 -0.39581099999999997 0.057013499999999995 -0.5788909999999999 0.075819 -0.18317950000000002 0.204174 -0.3395935 0.368946 -0.44974000000000003 0.164772 -0.110047 0.3584985 -0.1688515 0.5567025 -0.1688515 0.1318375 -0.0008954999999999999 0.2625805 0.0243775 0.3845675 0.074426 0.121987 0.050048499999999996 0.2327305 0.123778 0.325962 0.2170095 0.09323150000000001 0.09323150000000001 0.1670605 0.2040745 0.2170095 0.3260615 0.050048499999999996 0.1218875 0.0753215 0.25263050000000004 0.074426 0.38446800000000003Z" stroke-width="1"></path><path id="Vector_6" fill="#fecfc4" d="M49.496275 95.11404c0 0.198204 -0.0588045 0.391831 -0.16895100000000002 0.556603 -0.110047 0.164772 -0.26656050000000003 0.2932265 -0.4496405 0.3690455 -0.18308 0.0759185 -0.3845675 0.095719 -0.5788909999999999 0.057013499999999995 -0.1943235 -0.038606 -0.37292600000000004 -0.1340265 -0.513022 -0.274222 -0.140096 -0.140096 -0.2355165 -0.31859899999999997 -0.274222 -0.513022 -0.038606 -0.1943235 -0.0188055 -0.39581099999999997 0.057013499999999995 -0.5788909999999999 0.075819 -0.18308 0.2042735 -0.3395935 0.3690455 -0.4496405 0.164772 -0.11014650000000001 0.3584985 -0.1688515 0.5567025 -0.1688515 0.1318375 -0.0008954999999999999 0.26248099999999996 0.0243775 0.38446800000000003 0.0743265 0.121987 0.050048499999999996 0.23283 0.1238775 0.3260615 0.217109 0.09323150000000001 0.093132 0.166961 0.203975 0.2170095 0.325962 0.050048499999999996 0.121987 0.0753215 0.25273 0.074426 0.3845675Z" stroke-width="1"></path><path id="Vector_7" fill="#fecfc4" d="M34.7693795 88.11919c0 0.198204 0.0588045 0.39193049999999996 0.1688515 0.5567025 0.11014650000000001 0.164772 0.26666 0.29312699999999997 0.44974000000000003 0.3690455 0.18308 0.075819 0.38446800000000003 0.09561950000000001 0.5788909999999999 0.057013499999999995 0.1943235 -0.0387055 0.37282649999999995 -0.134126 0.513022 -0.274222 0.140096 -0.1401955 0.2355165 -0.3186985 0.274222 -0.513022 0.038606 -0.19442299999999998 0.0188055 -0.39581099999999997 -0.057013499999999995 -0.5788909999999999 -0.0759185 -0.18317950000000002 -0.2042735 -0.3395935 -0.3690455 -0.44974000000000003 -0.164772 -0.110047 -0.3584985 -0.1688515 -0.5567025 -0.1688515 -0.1318375 -0.0008954999999999999 -0.26248099999999996 0.0243775 -0.38446800000000003 0.074426 -0.121987 0.050048499999999996 -0.23283 0.123778 -0.3260615 0.2170095 -0.09323150000000001 0.09323150000000001 -0.1670605 0.2040745 -0.2170095 0.3260615 -0.050048499999999996 0.1218875 -0.0753215 0.25263050000000004 -0.074426 0.38446800000000003Z" stroke-width="1"></path><path id="Vector_8" fill="#fecfc4" d="M31.3097645 95.11404c0 0.198204 0.05870499999999999 0.391831 0.1688515 0.556603 0.110047 0.164772 0.26656050000000003 0.2932265 0.4496405 0.3690455 0.18308 0.0759185 0.3845675 0.095719 0.5788909999999999 0.057013499999999995 0.19442299999999998 -0.038606 0.37292600000000004 -0.1340265 0.513022 -0.274222 0.1401955 -0.140096 0.23561600000000002 -0.31859899999999997 0.274222 -0.513022 0.0387055 -0.1943235 0.0188055 -0.39581099999999997 -0.057013499999999995 -0.5788909999999999 -0.075819 -0.18308 -0.2042735 -0.3395935 -0.3690455 -0.4496405 -0.164772 -0.11014650000000001 -0.3584985 -0.1688515 -0.556603 -0.1688515 -0.1318375 -0.0008954999999999999 -0.2625805 0.0243775 -0.3845675 0.0743265 -0.121987 0.050048499999999996 -0.23283 0.1238775 -0.3260615 0.217109 -0.09323150000000001 0.093132 -0.166961 0.203975 -0.2170095 0.325962 -0.050048499999999996 0.121987 -0.0753215 0.25273 -0.0743265 0.3845675Z" stroke-width="1"></path></g><g id="color 1"><path id="Vector_9" fill="#6153bd" d="M140.10794 60.026360000000004c0.25472 -0.3079525 0.39601000000000003 -0.6946095000000001 0.398 -1.0945 -0.00995 -0.318798 -0.10547 -0.629039 -0.275615 -0.8987835 -0.17014500000000002 -0.269844 -0.40894499999999995 -0.48924150000000005 -0.6925199999999999 -0.6357055 -0.28258 -0.14646399999999998 -0.599985 -0.2146215 -0.918385 -0.1975075 -0.3184 0.0172135 -0.62685 0.1191015 -0.8925150000000001 0.2952165 0.174125 -0.35014049999999997 0.22686 -0.7485385 0.14925 -1.131912 -0.078605 -0.383473 -0.281585 -0.7298325 -0.57909 -0.984055 -0.29750499999999996 -0.2542225 -0.671625 -0.401781 -1.0626600000000002 -0.419094 -0.39004 -0.0174125 -0.7761 0.096316 -1.0945 0.32317599999999996 0.11740999999999999 -0.267257 0.166165 -0.5600854999999999 0.14129 -0.8512225 -0.024875 -0.2910375 -0.12338 -0.5711299999999999 -0.28556499999999996 -0.814308 -0.16119 -0.24307849999999998 -0.38208000000000003 -0.44148149999999997 -0.641775 -0.5766025 -0.2587 -0.135121 -0.5482450000000001 -0.20278100000000002 -0.83978 -0.196612 -0.307455 -0.0038805 -0.609935 0.0725355 -0.878585 0.2217855 -0.26865 0.1491505 -0.49352 0.36596100000000004 -0.6527200000000001 0.6289395l-1.682545 4.5371999999999995c0.582075 0.5750105 1.22186 1.0881319999999999 1.909405 1.531305 -1.077585 2.76013 -0.15123999999999999 3.1949449999999997 0.6965 2.363125 1.592 -1.569115 3.270565 0.5482450000000001 0.41591 2.816845 0.255715 2.223029 0.711425 4.418596 1.3611600000000001 6.560035 0 0 -0.5482450000000001 -6.23865 6.5033199999999995 -8.185865 0.22487000000000001 -0.063282 0.434815 -0.171339 0.6169 -0.317803 0.182085 -0.14646399999999998 0.33233 -0.3282505 0.44277500000000003 -0.534514 0.10945 -0.206164 0.17711 -0.432427 0.19701000000000002 -0.665257 0.0199 -0.2327305 -0.006965 -0.467252 -0.0796 -0.689336 -0.07263499999999999 -0.2219845 -0.190045 -0.42705400000000004 -0.343275 -0.6027710000000001 -0.154225 -0.175717 -0.34228 -0.3184 -0.55322 -0.419492 -0.21094 -0.1011915 -0.43979 -0.1587025 -0.67262 -0.1690505 -0.23382499999999998 -0.010348 -0.466655 0.026666000000000002 -0.6855549999999999 0.10875349999999999l-0.000995 -0.00199Z" stroke-width="1"></path><path id="Vector_10" fill="#6153bd" d="M126.763 69.459955c0.023880000000000002 0.144275 0.06865500000000001 0.284371 0.132335 0.41591 0.359195 0.775105 2.23079 1.32335 3.9322399999999997 1.606925 0.67859 -0.8544065000000001 1.21589 -1.811696 1.592 -2.83575 -2.6715750000000003 1.342255 -5.258575 2.23079 -5.656574999999999 0.8129149999999999Z" stroke-width="1"></path><path id="Vector_11" fill="#6153bd" d="M123.49343 85.42771499999999c-0.40397000000000005 2.18701 -0.24278 4.441083 0.46963999999999995 6.548095l2.7979399999999996 -5.86055c-1.0755949999999999 -0.20496999999999999 -2.164125 -0.4341185 -3.2675799999999997 -0.687545Z" stroke-width="1"></path><path id="Vector_12" fill="#6153bd" d="M188.372405 183.230245c-9.395785 0.018904999999999998 -16.93888 0.132335 -28.905745 0.132335 3.232755 -3.0248 9.433595 -7.845575 14.85933 -9.41469 4.096415 1.173105 8.440585 1.173105 12.536999999999999 0 1.07858 2.97306 1.5900100000000001 6.12124 1.509415 9.282355Z" stroke-width="1"></path><path id="Vector_13" fill="#6153bd" d="M92.2365 147.89679999999998c-5.7845320000000005 0.936295 -11.287279999999999 3.1521600000000003 -16.107059999999997 6.484415 6.295365 3.119325 21.079075 6.84361 26.448095 4.707345 0.056715 -0.47262499999999996 0.49152999999999997 -4.253625 0.964155 -8.16696 -6.76401 0.22686 -9.921145 -1.833785 -11.30519 -3.0248Z" stroke-width="1"></path><path id="Vector_14" fill="#6153bd" d="m113.71656 40.005965 -0.661675 1.569115 -9.94403 -3.535235c-0.104475 -0.037213 -0.20099 -0.0946245 -0.28357499999999997 -0.1690505 -0.08159000000000001 -0.074426 -0.148255 -0.16437400000000002 -0.196015 -0.26457050000000004 -0.047760000000000004 -0.100296 -0.07561999999999999 -0.2088505 -0.080595 -0.31969349999999996 -0.0059700000000000005 -0.110843 0.010945 -0.221686 0.047760000000000004 -0.3262605 0.036815 -0.104475 0.094525 -0.2006915 0.16915000000000002 -0.282978 0.074625 -0.082386 0.16417500000000002 -0.14925 0.26467 -0.196811 0.100495 -0.047561 0.20895 -0.0749235 0.319395 -0.0804955 0.110445 -0.0056715 0.221885 0.0106465 0.32636000000000004 0.0478595l10.038555 3.55812Z" stroke-width="1"></path><path id="Vector_15" fill="#6153bd" d="m137.80152999999999 48.56993 -14.802615000000001 -5.25559c-0.11343 0.28357499999999997 -0.22686 0.5671499999999999 -0.359195 0.888535 0.775105 0.32138500000000003 1.05868 0.623865 1.039775 1.153205l13.554884999999999 4.820774999999999c0.21293 0.075222 0.446755 0.062685 0.65073 -0.034825 0.203975 -0.09751 0.361185 -0.27203299999999997 0.43581 -0.4850625 0.07561999999999999 -0.213129 0.062685 -0.44735199999999997 -0.034825 -0.6512275 -0.09751 -0.2038755 -0.271635 -0.360588 -0.48456499999999997 -0.43581Z" stroke-width="1"></path><path id="Vector_16" fill="#6153bd" d="M43.1251905 35.714529999999996c0 0.5458569999999999 -0.161787 1.079575 -0.46516250000000003 1.5333945 -0.303276 0.453919 -0.73431 0.8077409999999999 -1.2386754999999998 1.0165915 -0.5043655 0.20895 -1.059277 0.2635755 -1.5946865 0.15711050000000001 -0.5354095 -0.106465 -1.0272379999999999 -0.36934399999999995 -1.4132980000000002 -0.755404 -0.38596050000000004 -0.38596050000000004 -0.6488395 -0.8777889999999999 -0.755404 -1.4131984999999998 -0.106465 -0.5354095 -0.051839500000000004 -1.0904205 0.15711050000000001 -1.594786 0.20895 -0.5043655 0.5626725 -0.9353995 1.0165915 -1.2386754999999998 0.453919 -0.303276 0.9875375000000001 -0.46516250000000003 1.5333945 -0.46516250000000003 0.7318225 0.000796 1.433397 0.2918335 1.9508965 0.809333 0.5174 0.5174 0.808537 1.2189745 0.8092335 1.950797Z" stroke-width="1"></path><path id="Vector_17" fill="#6153bd" d="M166.87742 30.6858c-0.500485 0.550434 -1.1104200000000002 0.9897265000000001 -1.791 1.2893210000000002 -0.6805800000000001 0.2995945 -1.41688 0.452924 -2.160145 0.449939 -0.91341 -0.0002985 -1.8109 -0.233626 -2.6088899999999997 -0.677993 -0.796995 -0.444367 -1.46862 -1.084948 -1.949205 -1.8611475 -0.480585 -0.7761995 -0.755205 -1.662247 -0.7979900000000001 -2.5742640000000003 -0.042785 -0.9121165 0.148255 -1.8199545 0.554215 -2.6376455 -1.292505 -0.390637 -2.623815 -0.6378945 -3.97005 -0.737295 -0.06169 0.0934305 -0.14626499999999998 0.169747 -0.24576499999999998 0.221885 -0.09850500000000001 0.052138000000000004 -0.20895 0.07850549999999999 -0.32138500000000003 0.076615 -0.275615 -0.001194 -0.5492400000000001 0.052337 -0.80396 0.1573095 -0.255715 0.105072 -0.48755 0.25959550000000003 -0.68257 0.45471500000000004 -0.19502 0.19502 -0.34924499999999997 0.426855 -0.45471500000000004 0.681973 -0.104475 0.255118 -0.158205 0.528544 -0.15721 0.8044575v1.43678c0.00199 0.5604835 0.22686 1.097286 0.623865 1.4925 0.9830599999999999 1.001965 1.833785 0.26467 2.136265 1.05868 0.18905 0.49152999999999997 0.510435 0.9263450000000001 0.094525 1.342255 -0.39402000000000004 0.396607 -0.615905 0.9332104999999999 -0.615905 1.4925 0 0.559389 0.221885 1.0959925 0.615905 1.4925l1.02087 1.02087c0.397005 0.3935225 0.93331 0.614313 1.4925 0.614313s1.0954949999999999 -0.22079049999999997 1.4925 -0.614313c0.09751 -0.09552000000000001 0.221885 -0.15910049999999998 0.35620999999999997 -0.18238349999999998 0.134325 -0.023283 0.27263000000000004 -0.0050745 0.397005 0.0520385 0.47759999999999997 0.21691 1.02087 0.2985 1.02087 0.888535 -0.000995 0.27571450000000003 0.052735 0.5489415 0.158205 0.8038605 0.104475 0.254919 0.259695 0.4864555 0.45471500000000004 0.681376 0.19502 0.194821 0.426855 0.3491455 0.681575 0.45411799999999997 0.25472 0.104873 0.5283450000000001 0.1583045 0.80396 0.15711050000000001h1.43678c0.5601849999999999 -0.0012935 1.097485 -0.2249695 1.4925 -0.621875 1.001965 -1.001965 0.26467 -1.833785 1.05868 -2.136265 0.47262499999999996 -0.17014500000000002 0.9263450000000001 -0.510435 1.342255 -0.094525 0.289545 0.2938235 0.65869 0.49551 1.0626600000000002 0.5795875 0.40397000000000005 0.08417699999999999 0.8238599999999999 0.0468645 1.20594 -0.1069625 -0.661675 -1.9743785 -1.65767 -3.8207005 -2.94321 -5.45857Z" stroke-width="1"></path><path id="Vector_18" fill="#6153bd" d="M40.818780499999995 132.64046499999998c-0.0054725 0.114425 -0.0546255 0.221885 -0.13731000000000002 0.30049 -0.082784 0.0796 -0.192632 0.12338 -0.3069575 0.12338s-0.224273 -0.04378 -0.30705699999999997 -0.12338c-0.0826845 -0.078605 -0.1318375 -0.186065 -0.13721049999999999 -0.30049 0.005373 -0.114425 0.054526 -0.221885 0.13721049999999999 -0.30049 0.082784 -0.0796 0.1927315 -0.12338 0.30705699999999997 -0.12338 0.1143255 0 0.2241735 0.04378 0.3069575 0.12338 0.0826845 0.078605 0.1318375 0.186065 0.13731000000000002 0.30049Z" stroke-width="1"></path><path id="Vector_19" fill="#6153bd" d="M130.14600000000002 95.15185c-0.00796 0.22805399999999998 -0.10347999999999999 0.444168 -0.26765500000000003 0.6027710000000001 -0.16417500000000002 0.158603 -0.383075 0.2472575 -0.6119249999999999 0.2472575 -0.227855 0 -0.446755 -0.0886545 -0.61093 -0.2472575 -0.16417500000000002 -0.158603 -0.259695 -0.37471699999999997 -0.26765500000000003 -0.6027710000000001 0.00796 -0.2279545 0.10347999999999999 -0.444168 0.26765500000000003 -0.6026715 0.16417500000000002 -0.158603 0.383075 -0.2472575 0.61093 -0.2472575 0.22885 0 0.44775 0.0886545 0.6119249999999999 0.2472575 0.16417500000000002 0.1585035 0.259695 0.37471699999999997 0.26765500000000003 0.6026715Z" stroke-width="1"></path><path id="Vector_20" fill="#6153bd" d="M138.387585 85.226725c-0.00796 0.22805399999999998 -0.10347999999999999 0.444168 -0.26765500000000003 0.6027710000000001 -0.16417500000000002 0.158603 -0.383075 0.2472575 -0.6119249999999999 0.2472575 -0.227855 0 -0.446755 -0.0886545 -0.61093 -0.2472575 -0.16417500000000002 -0.158603 -0.259695 -0.37471699999999997 -0.26765500000000003 -0.6027710000000001 0.00796 -0.22805399999999998 0.10347999999999999 -0.444168 0.26765500000000003 -0.6027710000000001 0.16417500000000002 -0.158603 0.383075 -0.2472575 0.61093 -0.2472575 0.22885 0 0.44775 0.0886545 0.6119249999999999 0.2472575 0.16417500000000002 0.158603 0.259695 0.37471699999999997 0.26765500000000003 0.6027710000000001Z" stroke-width="1"></path><path id="Vector_21" fill="#6153bd" d="M127.573925 82.39097500000001c-0.00796 0.22805399999999998 -0.10347999999999999 0.444168 -0.26765500000000003 0.6027710000000001 -0.16417500000000002 0.158603 -0.383075 0.2472575 -0.6119249999999999 0.2472575 -0.227855 0 -0.446755 -0.0886545 -0.61093 -0.2472575 -0.16417500000000002 -0.158603 -0.259695 -0.37471699999999997 -0.26765500000000003 -0.6027710000000001 0.00796 -0.22805399999999998 0.10347999999999999 -0.444168 0.26765500000000003 -0.6027710000000001 0.16417500000000002 -0.158603 0.383075 -0.2472575 0.61093 -0.2472575 0.22885 0 0.44775 0.0886545 0.6119249999999999 0.2472575 0.16417500000000002 0.158603 0.259695 0.37471699999999997 0.26765500000000003 0.6027710000000001Z" stroke-width="1"></path><path id="Vector_22" fill="#6153bd" d="M119.599 73.543435c-0.00796 0.22805399999999998 -0.10347999999999999 0.444168 -0.26765500000000003 0.6027710000000001 -0.16417500000000002 0.158603 -0.383075 0.2472575 -0.6119249999999999 0.2472575 -0.227855 0 -0.446755 -0.0886545 -0.61093 -0.2472575 -0.16417500000000002 -0.158603 -0.259695 -0.37471699999999997 -0.26765500000000003 -0.6027710000000001 0.00796 -0.22805399999999998 0.10347999999999999 -0.444168 0.26765500000000003 -0.6027710000000001 0.16417500000000002 -0.158603 0.383075 -0.2472575 0.61093 -0.2472575 0.22885 0 0.44775 0.0886545 0.6119249999999999 0.2472575 0.16417500000000002 0.158603 0.259695 0.37471699999999997 0.26765500000000003 0.6027710000000001Z" stroke-width="1"></path><path id="Vector_23" fill="#6153bd" d="M105.20931 72.371325c-0.00796 0.22805399999999998 -0.10347999999999999 0.444168 -0.26765500000000003 0.6027710000000001 -0.16417500000000002 0.158603 -0.383075 0.2472575 -0.6119249999999999 0.2472575 -0.227855 0 -0.446755 -0.0886545 -0.61093 -0.2472575 -0.16417500000000002 -0.158603 -0.259695 -0.37471699999999997 -0.26765500000000003 -0.6027710000000001 0.00796 -0.22805399999999998 0.10347999999999999 -0.444168 0.26765500000000003 -0.6027710000000001 0.16417500000000002 -0.158603 0.383075 -0.2472575 0.61093 -0.2472575 0.22885 0 0.44775 0.0886545 0.6119249999999999 0.2472575 0.16417500000000002 0.158603 0.259695 0.37471699999999997 0.26765500000000003 0.6027710000000001Z" stroke-width="1"></path><path id="Vector_24" fill="#6153bd" d="M113.092695 60.309934999999996c-0.00796 0.22805399999999998 -0.10347999999999999 0.444168 -0.26765500000000003 0.6027710000000001 -0.16417500000000002 0.158603 -0.383075 0.2472575 -0.61093 0.2472575 -0.22885 0 -0.44775 -0.0886545 -0.6119249999999999 -0.2472575 -0.16417500000000002 -0.158603 -0.259695 -0.37471699999999997 -0.26765500000000003 -0.6027710000000001 0.00796 -0.22805399999999998 0.10347999999999999 -0.444168 0.26765500000000003 -0.6027710000000001 0.16417500000000002 -0.158603 0.383075 -0.2472575 0.6119249999999999 -0.2472575 0.227855 0 0.446755 0.0886545 0.61093 0.2472575 0.16417500000000002 0.158603 0.259695 0.37471699999999997 0.26765500000000003 0.6027710000000001Z" stroke-width="1"></path><path id="Vector_25" fill="#6153bd" d="M136.270225 117.93237500000001s1.0945 1.70145 2.87356 4.49939l5.25559 -9.282355c-1.815875 2.66859 -5.33121 4.764060000000001 -8.12915 4.782965000000001Z" stroke-width="1"></path></g><g id="outlines"><path id="Vector_26" stroke="#120071" d="m113.71656 40.005965 -0.661675 1.569115 -9.94403 -3.535235c-0.104475 -0.037213 -0.20099 -0.0946245 -0.28357499999999997 -0.1690505 -0.08159000000000001 -0.074426 -0.148255 -0.16437400000000002 -0.196015 -0.26457050000000004 -0.047760000000000004 -0.100296 -0.07561999999999999 -0.2088505 -0.080595 -0.31969349999999996 -0.0059700000000000005 -0.110843 0.010945 -0.221686 0.047760000000000004 -0.3262605 0.036815 -0.104475 0.094525 -0.2006915 0.16915000000000002 -0.282978 0.074625 -0.082386 0.16417500000000002 -0.14925 0.26467 -0.196811 0.100495 -0.047561 0.20895 -0.0749235 0.319395 -0.0804955 0.110445 -0.0056715 0.221885 0.0106465 0.32636000000000004 0.0478595l10.038555 3.55812Z" stroke-width="1"></path><path id="Vector_27" stroke="#120071" d="M40.818780499999995 132.64046499999998c-0.0054725 0.114425 -0.0546255 0.221885 -0.13731000000000002 0.30049 -0.082784 0.0796 -0.192632 0.12338 -0.3069575 0.12338s-0.224273 -0.04378 -0.30705699999999997 -0.12338c-0.0826845 -0.078605 -0.1318375 -0.186065 -0.13721049999999999 -0.30049 0.005373 -0.114425 0.054526 -0.221885 0.13721049999999999 -0.30049 0.082784 -0.0796 0.1927315 -0.12338 0.30705699999999997 -0.12338 0.1143255 0 0.2241735 0.04378 0.3069575 0.12338 0.0826845 0.078605 0.1318375 0.186065 0.13731000000000002 0.30049Z" stroke-width="1"></path><path id="Vector_28" stroke="#120071" d="m137.80152999999999 48.56993 -14.802615000000001 -5.25559c-0.11343 0.28357499999999997 -0.22686 0.5671499999999999 -0.359195 0.888535 0.775105 0.32138500000000003 1.05868 0.623865 1.039775 1.153205l13.554884999999999 4.820774999999999c0.21293 0.075222 0.446755 0.062685 0.65073 -0.034825 0.203975 -0.09751 0.361185 -0.27203299999999997 0.43581 -0.4850625 0.07561999999999999 -0.213129 0.062685 -0.44735199999999997 -0.034825 -0.6512275 -0.09751 -0.2038755 -0.271635 -0.360588 -0.48456499999999997 -0.43581Z" stroke-width="1"></path><path id="Vector_29" stroke="#120071" stroke-linecap="round" stroke-linejoin="round" d="M4.975 183.36257999999998h189.05" stroke-width="1"></path><path id="Vector_30" stroke="#120071" stroke-linecap="round" stroke-linejoin="round" d="M35.695625 126.628675c-2.7103800000000002 -1.565135 -4.9605725 -3.81682 -6.5237175 -6.528195 -1.5632445 -2.711375 -2.3843185 -5.786919999999999 -2.3805375 -8.91719v-1.73926" stroke-width="1"></path><path id="Vector_31" stroke="#120071" stroke-linecap="round" stroke-linejoin="round" d="M92.95887 129.02961H46.433665000000005" stroke-width="1"></path><path id="Vector_32" stroke="#120071" stroke-linecap="round" stroke-linejoin="round" d="M143.340695 129.02961h-34.70958" stroke-width="1"></path><path id="Vector_33" stroke="#120071" stroke-linecap="round" stroke-linejoin="round" d="M170.715135 109.44403v1.73926c-0.000995 3.075545 -0.79401 6.098355 -2.30442 8.77789 -1.51041 2.6785400000000004 -3.68548 4.92326 -6.31626 6.516255" stroke-width="1"></path><path id="Vector_34" stroke="#120071" stroke-linecap="round" stroke-linejoin="round" d="M123.43373 89.85845h-25.3327v-6.597845h17.789605" stroke-width="1"></path><path id="Vector_35" stroke="#120071" stroke-linecap="round" stroke-linejoin="round" d="M103.451145 77.362245h-5.350115v-6.57894h2.2118849999999997" stroke-width="1"></path><path id="Vector_36" stroke="#120071" stroke-linecap="round" stroke-linejoin="round" d="M134.682205 70.783305h26.2879m-23.471055 6.57894h24.36556" stroke-width="1"></path><path id="Vector_37" stroke="#120071" stroke-linecap="round" stroke-linejoin="round" d="M176.24832999999998 70.783305h2.860625v6.57894h-9.95597" stroke-width="1"></path><path id="Vector_38" stroke="#120071" stroke-linecap="round" stroke-linejoin="round" d="M139.88108 83.260605h39.227875v6.597845h-37.753285" stroke-width="1"></path><path id="Vector_39" stroke="#120071" stroke-linecap="round" stroke-linejoin="round" d="M104.60435 102.33574999999999h-6.5033199999999995v-6.597845h27.393345" stroke-width="1"></path><path id="Vector_40" stroke="#120071" stroke-linecap="round" stroke-linejoin="round" d="M143.32179 95.737905h35.787165v6.597845h-29.359465" stroke-width="1"></path><path id="Vector_41" stroke="#120071" stroke-linecap="round" stroke-linejoin="round" d="M137.631385 65.036185h22.742715" stroke-width="1"></path><path id="Vector_42" stroke="#120071" stroke-linecap="round" stroke-linejoin="round" d="M117.478655 65.036185h10.01965" stroke-width="1"></path><path id="Vector_43" stroke="#120071" stroke-linecap="round" stroke-linejoin="round" d="M101.61736 65.036185H88.7998695c-2.1658165 0.0004975 -4.242878999999999 0.861073 -5.774383 2.3925769999999997 -1.5314044999999998 1.531504 -2.3920795 3.6084669999999996 -2.3925769999999997 5.774383v28.073925c0.0004975 2.166115 0.8611725 4.24268 2.3925769999999997 5.773985 1.531504 1.5323 3.6085665000000002 2.3919799999999998 5.774383 2.392975h7.788860000000001" stroke-width="1"></path><path id="Vector_44" stroke="#120071" stroke-linecap="round" stroke-linejoin="round" d="M181.9258 65.716765c1.421855 0.6667495 2.62282 1.7254295 3.4635949999999998 3.0515655 0.8407749999999999 1.326136 1.2855400000000001 2.8647045 1.28156 4.4348145v28.073925c0 2.166115 -0.860675 4.24268 -2.392975 5.773985 -1.531305 1.5323 -3.6078699999999997 2.3919799999999998 -5.773985 2.392975h-24.676000000000002" stroke-width="1"></path><path id="Vector_45" stroke="#120071" stroke-linecap="round" stroke-linejoin="round" d="m129.49526999999998 45.601845000000004 41.219865 0" stroke-width="1"></path><path id="Vector_46" stroke="#120071" stroke-linecap="round" stroke-linejoin="round" d="M26.791369999999997 45.601845000000004h84.75111500000001" stroke-width="1"></path><path id="Vector_47" stroke="#120071" stroke-linecap="round" stroke-linejoin="round" d="m86.58778550000001 72.825045 3.232755 4.5371999999999995 3.7809999999999997 -6.57894" stroke-width="1"></path><path id="Vector_48" stroke="#120071" stroke-linecap="round" stroke-linejoin="round" d="m86.58778550000001 85.30234499999999 3.232755 4.556105 3.7809999999999997 -6.597845" stroke-width="1"></path><path id="Vector_49" stroke="#120071" stroke-linecap="round" stroke-linejoin="round" d="M142.45216 61.652190000000004c-0.0029850000000000002 0.376906 -0.128355 0.742668 -0.35620999999999997 1.0424615000000002 -0.22885 0.299893 -0.5482450000000001 0.517798 -0.910425 0.6211785 -7.02271 2.0497 -6.5033199999999995 8.185865 -6.5033199999999995 8.185865 -0.6497350000000001 -2.141439 -1.1044500000000002 -4.337006 -1.3611600000000001 -6.560035 2.854655 -2.2685999999999997 1.1760899999999999 -4.378 -0.41591 -2.816845 -0.848735 0.8338099999999999 -1.77707 0.398 -0.6965 -2.363125 -0.687545 -0.44317300000000004 -1.3273300000000001 -0.9562944999999999 -1.909405 -1.531305l1.682545 -4.5371999999999995c0.1592 -0.2629785 0.38407 -0.479789 0.6527200000000001 -0.629039 0.26865 -0.1491505 0.5711299999999999 -0.225666 0.878585 -0.221686 0.29252999999999996 -0.006169 0.5810799999999999 0.061491 0.8407749999999999 0.196612 0.2587 0.135121 0.47958999999999996 0.3334245 0.641775 0.5766025 0.162185 0.24307849999999998 0.259695 0.523171 0.28457 0.814308 0.025869999999999997 0.29113700000000003 -0.022885 0.583866 -0.14129 0.8512225 0.3184 -0.22686 0.70446 -0.3405885 1.0954949999999999 -0.3232755 0.39004 0.0174125 0.7641600000000001 0.164971 1.0616649999999999 0.4191935 0.29750499999999996 0.2542225 0.50148 0.6005820000000001 0.57909 0.9839555 0.07761 0.383473 0.025869999999999997 0.7818710000000001 -0.14925 1.1320115 0.26566500000000004 -0.176115 0.5741149999999999 -0.278003 0.8925150000000001 -0.2952165 0.3184 -0.017114 0.6358050000000001 0.0510435 0.9193800000000001 0.1975075 0.28258 0.14646399999999998 0.522375 0.3658615 0.6925199999999999 0.6357055 0.17014500000000002 0.2697445 0.26467 0.5799854999999999 0.27462000000000003 0.8987835 -0.00199 0.399791 -0.14328 0.7865475 -0.398 1.0945 0.26268 -0.0904455 0.54327 -0.117609 0.818885 -0.0795005 0.275615 0.038208 0.5382950000000001 0.14069299999999998 0.76615 0.29919650000000003 0.22885 0.1585035 0.41591 0.3686475 0.5482450000000001 0.6132185 0.132335 0.2446705 0.20496999999999999 0.517002 0.21193499999999998 0.7949055v0Z" stroke-width="1"></path><path id="Vector_50" stroke="#120071" stroke-linecap="round" stroke-linejoin="round" d="M136.648325 76.018c-2.00393 -3.3083750000000003 -2.9113700000000002 -7.694335 -3.32728 -11.078330000000001 2.854655 -2.2685999999999997 1.17211 -4.385960000000001 -0.41591 -2.816845 -0.850725 0.83182 -1.77707 0.398 -0.6965 -2.363125 -0.679585 -0.453919 -1.3183749999999999 -0.966344 -1.909405 -1.531305 -2.558145 5.6655299999999995 -3.53424 8.546055 -3.62976 10.212679999999999 -0.11144 1.96015 0.95122 2.504415 4.1591 3.0397250000000002 -0.476605 1.049725 -0.16417500000000002 1.772095 -1.551205 2.0686050000000002" stroke-width="1"></path><path id="Vector_51" stroke="#120071" stroke-linecap="round" stroke-linejoin="round" d="M130.825585 71.48279c0.67859 -0.8544065000000001 1.21589 -1.811696 1.592 -2.83575 -2.665605 1.342255 -5.266535 2.2238249999999997 -5.66354 0.80595" stroke-width="1"></path><path id="Vector_52" stroke="#120071" stroke-linecap="round" stroke-linejoin="round" d="M126.326195 97.666215c-0.90346 -2.120345 -1.7711000000000001 -3.84468 -2.339245 -5.56006 -0.74824 -2.1484039999999998 -0.922365 -4.4551125 -0.504465 -6.691375 -1.95418 -0.440785 -3.94418 -0.980075 -5.909305 -1.60593 -4.377005 -1.3813585000000002 -8.60675 -3.1910645 -12.628540000000001 -5.40285 -1.791995 -0.989428 -3.188975 -2.563518 -3.9601 -4.4592915 -0.77013 -1.895873 -0.86764 -3.9986064999999997 -0.27462000000000003 -5.9573635000000005 1.957165 -6.7567465 4.48745 -13.334194 7.561999999999999 -19.6612 2.3253150000000002 0.1519365 4.62078 0.603766 6.830675 1.344245 1.666625 0.56914 3.2526550000000003 1.350016 4.72028 2.323325 -2.3143700000000003 5.2867334999999995 -4.28447 10.7174435 -5.89836 16.2583 4.679485000000001 2.3027284999999997 9.61767 4.0405955 14.70809 5.176985 0.92535 0.23084000000000002 6.94112 0.90545 8.299294999999999 3.0248 4.51531 7.04659 3.346185 14.764805 7.03266 20.37959" stroke-width="1"></path><path id="Vector_53" stroke="#120071" stroke-linecap="round" stroke-linejoin="round" d="m108.72564 118.44281 1.849705 -0.038805" stroke-width="1"></path><path id="Vector_54" stroke="#120071" stroke-linecap="round" stroke-linejoin="round" d="M188.372405 183.230245c-9.395785 0.018904999999999998 -16.93888 0.132335 -28.905745 0.132335 3.232755 -3.0248 9.433595 -7.845575 14.85933 -9.41469 4.096415 1.173105 8.440585 1.173105 12.536999999999999 0 1.07858 2.97306 1.5900100000000001 6.12124 1.509415 9.282355v0Z" stroke-width="1"></path><path id="Vector_55" stroke="#120071" stroke-linecap="round" stroke-linejoin="round" d="m174.32599 173.92898499999998 -2.930275 -4.707345" stroke-width="1"></path><path id="Vector_56" stroke="#120071" stroke-linecap="round" stroke-linejoin="round" d="m183.343675 162.30240999999998 -28.338595 -47.772935c-1.0945 -11.021615 -11.0445 -17.695079999999997 -11.0445 -17.695079999999997 -10.832565 -1.266635 -27.242105000000002 2.363125 -37.710499999999996 4.99092 -2.8984349999999997 0.721375 -5.51429 2.293475 -7.51225 4.513319999999999 -1.9977610000000001 2.219845 -3.2857885 4.98694 -3.6984150000000002 7.945075l-3.913335 27.71473 14.953854999999999 1.001965L110.575345 118.405c0.108455 0 20.472125 -0.47163 25.69488 -0.47163 0 0 32.045965 50.407695000000004 32.365359999999995 51.138025000000006 0.67461 1.5392649999999999 6.566999999999999 -1.252705 8.06547 -1.99796 1.19201 -0.596005 7.075444999999999 -3.73921 6.64262 -4.771025Z" stroke-width="1"></path><path id="Vector_57" stroke="#120071" stroke-linecap="round" stroke-linejoin="round" d="m181.642225 164.174005 5.198874999999999 9.75498" stroke-width="1"></path><path id="Vector_58" stroke="#120071" stroke-linecap="round" stroke-linejoin="round" d="M104.547635 142.882c-0.22686 1.70145 -0.623865 4.9153 -1.001965 8.034625" stroke-width="1"></path><path id="Vector_59" stroke="#120071" stroke-linecap="round" stroke-linejoin="round" d="M92.2226695 147.897795c-5.7782634999999996 0.9382849999999999 -11.274743 3.153155 -16.08915 6.48342 6.295365 3.119325 21.079075 6.84361 26.4479955 4.707345 0.056715 -0.47262499999999996 0.49152999999999997 -4.253625 0.964155 -8.16696 -6.7629155 0.22686 -9.9220405 -1.831795 -11.3230005 -3.0238050000000003Z" stroke-width="1"></path><path id="Vector_60" stroke="#120071" stroke-linecap="round" stroke-linejoin="round" d="m92.22257 147.897795 0.8308249999999999 -5.7670200000000005" stroke-width="1"></path><path id="Vector_61" stroke="#120071" stroke-linecap="round" stroke-linejoin="round" d="M123.35811 42.104420000000005c0.83182 -0.71839 2.64471 0.16915000000000002 2.098455 1.531305 -0.227855 0.5671499999999999 -0.398 1.001965 -0.623865 1.592 1.2855400000000001 0.5482450000000001 1.2109150000000002 1.001965 0.6965 2.6467 -0.64078 2.060645 -0.71839 2.2685999999999997 -2.00393 2.53327 -2.3123799999999997 0.46963999999999995 -3.0546499999999996 1.668615 -3.378025 2.667595" stroke-width="1"></path><path id="Vector_62" stroke="#120071" stroke-linecap="round" stroke-linejoin="round" d="m137.517955 49.36394 21.96761 7.788860000000001" stroke-width="1"></path><path id="Vector_63" stroke="#120071" stroke-linecap="round" stroke-linejoin="round" d="M172.05739 57.833380000000005c-6.257555 -2.189 -11.853435000000001 -2.476555 -12.496205 -0.6427700000000001 -0.932315 2.6417249999999997 7.342104999999999 6.33218 10.149 7.316235 2.84371 0.995 11.533045 3.276535 12.496205 0.661675 0.645755 -1.833785 -3.91035 -5.10435 -10.149 -7.33514Z" stroke-width="1"></path><path id="Vector_64" stroke="#120071" stroke-linecap="round" stroke-linejoin="round" d="m159.65571 58.287099999999995 1.871595 17.865225c0.074625 0.7045594999999999 0.343275 1.374493 0.7780900000000001 1.9343795 0.43382 0.5598865 1.015895 0.987637 1.67956 1.2350935 0.6636650000000001 0.2474565 1.38305 0.30486800000000003 2.07756 0.165767 0.6955049999999999 -0.139101 1.33728 -0.46914249999999996 1.85468 -0.95321l13.403645 -12.536999999999999" stroke-width="1"></path><path id="Vector_65" stroke="#120071" stroke-linecap="round" stroke-linejoin="round" d="M43.1251905 35.714529999999996c0 0.5458569999999999 -0.161787 1.079575 -0.46516250000000003 1.5333945 -0.303276 0.453919 -0.73431 0.8077409999999999 -1.2386754999999998 1.0165915 -0.5043655 0.20895 -1.059277 0.2635755 -1.5946865 0.15711050000000001 -0.5354095 -0.106465 -1.0272379999999999 -0.36934399999999995 -1.4132980000000002 -0.755404 -0.38596050000000004 -0.38596050000000004 -0.6488395 -0.8777889999999999 -0.755404 -1.4131984999999998 -0.106465 -0.5354095 -0.051839500000000004 -1.0904205 0.15711050000000001 -1.594786 0.20895 -0.5043655 0.5626725 -0.9353995 1.0165915 -1.2386754999999998 0.453919 -0.303276 0.9875375000000001 -0.46516250000000003 1.5333945 -0.46516250000000003 0.7318225 0.000796 1.433397 0.2918335 1.9508965 0.809333 0.5174 0.5174 0.808537 1.2189745 0.8092335 1.950797Z" stroke-width="1"></path><path id="Vector_66" stroke="#120071" stroke-linecap="round" stroke-linejoin="round" d="M51.5001055 35.714529999999996c0 0.5458569999999999 -0.16188650000000002 1.079575 -0.46516250000000003 1.5333945 -0.303276 0.453919 -0.73431 0.8077409999999999 -1.2386754999999998 1.0165915 -0.5043655 0.20895 -1.059277 0.2635755 -1.5946865 0.15711050000000001 -0.5354095 -0.106465 -1.0272379999999999 -0.36934399999999995 -1.4132980000000002 -0.755404 -0.38596050000000004 -0.38596050000000004 -0.6488395 -0.8777889999999999 -0.755404 -1.4131984999999998 -0.106465 -0.5354095 -0.051839500000000004 -1.0904205 0.15711050000000001 -1.594786 0.20895 -0.5043655 0.5626725 -0.9353995 1.0165915 -1.2386754999999998 0.453919 -0.303276 0.9875375000000001 -0.46516250000000003 1.5333945 -0.46516250000000003 0.7318225 0.000796 1.433397 0.2918335 1.9508965 0.809333 0.5174 0.5174 0.8084375 1.2189745 0.8092335 1.950797Z" stroke-width="1"></path><path id="Vector_67" stroke="#120071" stroke-linecap="round" stroke-linejoin="round" d="M59.8750205 35.714529999999996c0 0.5458569999999999 -0.161787 1.079376 -0.4649635 1.5331955 -0.303276 0.453919 -0.7342105 0.8076415 -1.2383769999999998 1.0165915 -0.504266 0.2090495 -1.0591775 0.2637745 -1.5944875 0.157409 -0.5354095 -0.106266 -1.0271385 -0.368946 -1.4132980000000002 -0.754807 -0.38606 -0.3857615 -0.649138 -0.877391 -0.7558020000000001 -1.412701 -0.10676350000000001 -0.5353100000000001 -0.052337 -1.0902215 0.156215 -1.594587 0.2086515 -0.5043655 0.5620755 -0.9355985 1.015696 -1.2390735000000002 0.45362050000000004 -0.30357449999999997 0.9871395 -0.4657595 1.532897 -0.4661575 0.732121 0.0002985 1.4342925 0.2910375 1.9521899999999999 0.8086365 0.517798 0.5174995 0.809134 1.2193725 0.8099299999999999 1.9514935v0Z" stroke-width="1"></path><path id="Vector_68" stroke="#120071" stroke-linecap="round" stroke-linejoin="round" d="M51.292249999999996 93.37477999999999c0 2.1574584999999997 -0.6396855 4.266361 -1.8383619999999998 6.0602465 -1.1985769999999998 1.7942835 -2.9022159999999997 3.1922585 -4.8953999999999995 4.0171135 -1.993184 0.82585 -4.186462499999999 1.0417649999999998 -6.302429500000001 0.62088 -2.1160665 -0.420885 -4.0596995 -1.459665 -5.585233499999999 -2.985s-2.5644135 -3.469167 -2.9852985000000003 -5.585134c-0.420885 -2.1160665 -0.2048705 -4.309245499999999 0.620681 -6.302529 0.825651 -1.993184 2.2238249999999997 -3.6968229999999997 4.017611 -4.8953999999999995 1.7938855 -1.1985769999999998 3.9028875 -1.8383619999999998 6.0602465 -1.8383619999999998 1.4327999999999999 -0.0010945 2.8517695 0.280391 4.175617 0.828238 1.323947 0.5477474999999999 2.526902 1.35121 3.540011 2.364319 1.013109 1.0132085 1.8165715 2.216064 2.3644185 3.540011 0.5477474999999999 1.323947 0.829233 2.742817 0.8281385 4.175617v0Z" stroke-width="1"></path><path id="Vector_69" stroke="#120071" stroke-linecap="round" stroke-linejoin="round" d="M44.0326305 78.81793c0 0.7216735 -0.213925 1.4270289999999999 -0.61491 2.0271135 -0.4008855 0.599985 -0.970722 1.067635 -1.6374715 1.343847 -0.6666500000000001 0.27611250000000004 -1.4002634999999999 0.34834950000000003 -2.1081065 0.20755700000000002 -0.7077435000000001 -0.1407925 -1.3578765 -0.4882465 -1.8681124999999998 -0.9984825 -0.5103355 -0.5103355 -0.8577895 -1.1604685 -0.9985820000000001 -1.868212 -0.1407925 -0.7077435000000001 -0.0685555 -1.441357 0.2076565 -2.1081065 0.27611250000000004 -0.6667495 0.7437625000000001 -1.236586 1.3437475 -1.6374715 0.6000845 -0.4008855 1.3055395 -0.61491 2.0271135 -0.61491 0.967538 0.0004975 1.895276 0.385065 2.579438 1.069227s1.0687295 1.6119 1.069227 2.579438Z" stroke-width="1"></path><path id="Vector_70" stroke="#120071" stroke-linecap="round" stroke-linejoin="round" d="M40.384065 75.169265c-0.448944 -1.3568814999999999 -1.2868335 -2.5518765 -2.409492 -3.4364315 -1.1226585 -0.884555 -2.4805349999999997 -1.4195665000000002 -3.904778 -1.5385685" stroke-width="1"></path><path id="Vector_71" stroke="#120071" stroke-linecap="round" stroke-linejoin="round" d="M40.3839655 75.169265c0.448944 -1.3568814999999999 1.2868335 -2.5518765 2.409492 -3.4364315 1.1226585 -0.884555 2.4805349999999997 -1.4195665000000002 3.904778 -1.5385685" stroke-width="1"></path><path id="Vector_72" stroke="#120071" stroke-linecap="round" stroke-linejoin="round" d="M33.78622 84.6745s-3.270565 -6.0496 -8.280389999999999 -4.4775" stroke-width="1"></path><path id="Vector_73" stroke="#120071" stroke-linecap="round" stroke-linejoin="round" d="M30.288894499999998 89.21568s-5.444640000000001 -4.19691 -9.37688 -0.737295" stroke-width="1"></path><path id="Vector_74" stroke="#120071" stroke-linecap="round" stroke-linejoin="round" d="M29.5894095 95.095135s-6.749085 -1.24773 -8.677395 3.62976" stroke-width="1"></path><path id="Vector_75" stroke="#120071" stroke-linecap="round" stroke-linejoin="round" d="M46.9440005 84.6745s3.270565 -6.0496 8.280389999999999 -4.4775" stroke-width="1"></path><path id="Vector_76" stroke="#120071" stroke-linecap="round" stroke-linejoin="round" d="M50.4465 89.21568s5.444640000000001 -4.19691 9.37688 -0.737295" stroke-width="1"></path><path id="Vector_77" stroke="#120071" stroke-linecap="round" stroke-linejoin="round" d="M51.1429005 95.095135s6.749085 -1.24773 8.677395 3.62976" stroke-width="1"></path><path id="Vector_78" stroke="#120071" stroke-linecap="round" stroke-linejoin="round" d="M40.384065 82.466595c0 8.12915 0.7562 16.768735000000003 -7.788860000000001 18.545804999999998" stroke-width="1"></path><path id="Vector_79" stroke="#120071" stroke-linecap="round" stroke-linejoin="round" d="M40.3841645 82.466595c0 8.12915 -0.737295 16.78764 7.807765000000001 18.56471" stroke-width="1"></path><path id="Vector_80" stroke="#120071" stroke-linecap="round" stroke-linejoin="round" d="M46.0365605 88.11919c0 0.198204 -0.0588045 0.39193049999999996 -0.1688515 0.5567025 -0.11014650000000001 0.164772 -0.26656050000000003 0.29312699999999997 -0.4496405 0.3690455 -0.18308 0.075819 -0.3845675 0.09561950000000001 -0.5788909999999999 0.057013499999999995 -0.19442299999999998 -0.0387055 -0.37292600000000004 -0.134126 -0.5131215 -0.274222 -0.140096 -0.1401955 -0.2355165 -0.3186985 -0.27412250000000005 -0.513022 -0.0387055 -0.19442299999999998 -0.018904999999999998 -0.39581099999999997 0.057013499999999995 -0.5788909999999999 0.075819 -0.18317950000000002 0.204174 -0.3395935 0.368946 -0.44974000000000003 0.164772 -0.110047 0.3584985 -0.1688515 0.5567025 -0.1688515 0.1318375 -0.0008954999999999999 0.2625805 0.0243775 0.3845675 0.074426 0.121987 0.050048499999999996 0.2327305 0.123778 0.325962 0.2170095 0.09323150000000001 0.09323150000000001 0.1670605 0.2040745 0.2170095 0.3260615 0.050048499999999996 0.1218875 0.0753215 0.25263050000000004 0.074426 0.38446800000000003Z" stroke-width="1"></path><path id="Vector_81" stroke="#120071" stroke-linecap="round" stroke-linejoin="round" d="M49.496275 95.11404c0 0.198204 -0.0588045 0.391831 -0.16895100000000002 0.556603 -0.110047 0.164772 -0.26656050000000003 0.2932265 -0.4496405 0.3690455 -0.18308 0.0759185 -0.3845675 0.095719 -0.5788909999999999 0.057013499999999995 -0.1943235 -0.038606 -0.37292600000000004 -0.1340265 -0.513022 -0.274222 -0.140096 -0.140096 -0.2355165 -0.31859899999999997 -0.274222 -0.513022 -0.038606 -0.1943235 -0.0188055 -0.39581099999999997 0.057013499999999995 -0.5788909999999999 0.075819 -0.18308 0.2042735 -0.3395935 0.3690455 -0.4496405 0.164772 -0.11014650000000001 0.3584985 -0.1688515 0.5567025 -0.1688515 0.1318375 -0.0008954999999999999 0.26248099999999996 0.0243775 0.38446800000000003 0.0743265 0.121987 0.050048499999999996 0.23283 0.1238775 0.3260615 0.217109 0.09323150000000001 0.093132 0.166961 0.203975 0.2170095 0.325962 0.050048499999999996 0.121987 0.0753215 0.25273 0.074426 0.3845675v0Z" stroke-width="1"></path><path id="Vector_82" stroke="#120071" stroke-linecap="round" stroke-linejoin="round" d="M34.7693795 88.11919c0 0.198204 0.0588045 0.39193049999999996 0.1688515 0.5567025 0.11014650000000001 0.164772 0.26666 0.29312699999999997 0.44974000000000003 0.3690455 0.18308 0.075819 0.38446800000000003 0.09561950000000001 0.5788909999999999 0.057013499999999995 0.1943235 -0.0387055 0.37282649999999995 -0.134126 0.513022 -0.274222 0.140096 -0.1401955 0.2355165 -0.3186985 0.274222 -0.513022 0.038606 -0.19442299999999998 0.0188055 -0.39581099999999997 -0.057013499999999995 -0.5788909999999999 -0.0759185 -0.18317950000000002 -0.2042735 -0.3395935 -0.3690455 -0.44974000000000003 -0.164772 -0.110047 -0.3584985 -0.1688515 -0.5567025 -0.1688515 -0.1318375 -0.0008954999999999999 -0.26248099999999996 0.0243775 -0.38446800000000003 0.074426 -0.121987 0.050048499999999996 -0.23283 0.123778 -0.3260615 0.2170095 -0.09323150000000001 0.09323150000000001 -0.1670605 0.2040745 -0.2170095 0.3260615 -0.050048499999999996 0.1218875 -0.0753215 0.25263050000000004 -0.074426 0.38446800000000003Z" stroke-width="1"></path><path id="Vector_83" stroke="#120071" stroke-linecap="round" stroke-linejoin="round" d="M31.3097645 95.11404c0 0.198204 0.05870499999999999 0.391831 0.1688515 0.556603 0.110047 0.164772 0.26656050000000003 0.2932265 0.4496405 0.3690455 0.18308 0.0759185 0.3845675 0.095719 0.5788909999999999 0.057013499999999995 0.19442299999999998 -0.038606 0.37292600000000004 -0.1340265 0.513022 -0.274222 0.1401955 -0.140096 0.23561600000000002 -0.31859899999999997 0.274222 -0.513022 0.0387055 -0.1943235 0.0188055 -0.39581099999999997 -0.057013499999999995 -0.5788909999999999 -0.075819 -0.18308 -0.2042735 -0.3395935 -0.3690455 -0.4496405 -0.164772 -0.11014650000000001 -0.3584985 -0.1688515 -0.556603 -0.1688515 -0.1318375 -0.0008954999999999999 -0.2625805 0.0243775 -0.3845675 0.0743265 -0.121987 0.050048499999999996 -0.23283 0.1238775 -0.3260615 0.217109 -0.09323150000000001 0.093132 -0.166961 0.203975 -0.2170095 0.325962 -0.050048499999999996 0.121987 -0.0753215 0.25273 -0.0743265 0.3845675v0Z" stroke-width="1"></path><path id="Vector_84" stroke="#120071" stroke-linecap="round" stroke-linejoin="round" d="m93.22344050000001 95.94586 -6.23865 6.20084" stroke-width="1"></path><path id="Vector_85" stroke="#120071" stroke-linecap="round" stroke-linejoin="round" d="m93.20453549999999 102.165605 -6.2197450000000005 -6.23865" stroke-width="1"></path><path id="Vector_86" stroke="#120071" stroke-linecap="round" stroke-linejoin="round" d="M20.080095 53.73c0.063481 0.3626775 0.018109 0.736101 -0.13054400000000002 1.0729085s-0.393821 0.622074 -0.7045594999999999 0.8195815c-0.31073850000000003 0.1975075 -0.6731175 0.2984005 -1.041168 0.289943 -0.36815 -0.008357999999999999 -0.7254545 -0.12576800000000002 -1.02684 -0.337305 -0.30138550000000003 -0.2114375 -0.53332 -0.5075495 -0.6663515 -0.8508245 -0.133131 -0.3433745 -0.1614885 -0.71839 -0.08139099999999999 -1.0777839999999999 0.0800975 -0.35939400000000005 0.26486899999999997 -0.686948 0.531131 -0.9412699999999999 0.2661625 -0.254322 0.6018755 -0.42406900000000003 0.964553 -0.48764949999999996 0.4860575 -0.0832815 0.985448 0.028855000000000002 1.3891194999999998 0.31223100000000004 0.403771 0.2832765 0.6790875 0.7147085000000001 0.7660505000000001 1.200169v0Z" stroke-width="1"></path><path id="Vector_87" stroke="#120071" stroke-linecap="round" stroke-linejoin="round" d="M179.11791 121.8079v10.322130000000001" stroke-width="1"></path><path id="Vector_88" stroke="#120071" stroke-linecap="round" stroke-linejoin="round" d="M184.27002 126.96001h-10.303225000000001" stroke-width="1"></path><path id="Vector_89" stroke="#120071" stroke-linecap="round" stroke-linejoin="round" d="m119.48159 52.8345 1.83478 0.65073c-1.805925 4.335414 -3.228775 8.820376499999998 -4.253625 13.403645l13.42255 5.63369" stroke-width="1"></path><path id="Vector_90" stroke="#120071" stroke-linecap="round" stroke-linejoin="round" d="M110.42708999999999 48.556c0.040795000000000005 -0.0995 3.61583 -9.2535 3.648665 -9.357975 0.51143 -1.286535 2.595955 -0.53332 2.11736 1.05868 0.066665 -0.2134275 0.14925 -0.42197949999999995 0.24576499999999998 -0.623865 0.5671499999999999 -1.3044449999999999 2.7223200000000003 -0.49152999999999997 2.174075 1.153205 -0.037809999999999996 0.0995 -0.132335 0.3781 -0.132335 0.3781 0.0995 -0.26467 0.18905 -0.510435 0.2985 -0.7562 0.60695 -1.322355 2.8277900000000002 -0.432825 2.2417350000000003 1.21191l-0.08656499999999999 0.20596499999999998c0.056715 -0.15123999999999999 0.132335 -0.28357499999999997 0.18905 -0.41591 0.623865 -1.228825 2.741225 -0.2985 2.136265 1.2099199999999999 -0.22686 0.5671499999999999 -0.398 1.001965 -0.623865 1.592 0.9830599999999999 0.41889499999999996 1.1701199999999998 0.783065 0.9760949999999999 1.66563 -0.7641600000000001 3.47255 -1.53628 3.35713 -2.299445 3.51434 -1.833785 0.3781 -2.665605 0.9830599999999999 -3.10042 1.644735" stroke-width="1"></path><path id="Vector_91" stroke="#120071" stroke-linecap="round" stroke-linejoin="round" d="m175.063285 167.841575 -32.686745 -51.119119999999995" stroke-width="1"></path><path id="Vector_92" stroke="#120071" stroke-linecap="round" stroke-linejoin="round" d="M133.283235 96.834395c0.37412 2.321136 -0.168155 4.6964 -1.5114049999999999 6.625705 -1.344245 1.929305 -3.38499 3.26161 -5.6914 3.71533l-17.3926 3.421805c-1.791995 0.355215 -3.43076 1.25569 -4.6894350000000005 2.580035 -1.25967 1.32335 -2.07756 3.003905 -2.343225 4.81182l-3.55414 24.481975000000002" stroke-width="1"></path><path id="Vector_93" stroke="#120071" stroke-linecap="round" stroke-linejoin="round" d="M40.3652595 125.380945v4.896395" stroke-width="1"></path><path id="Vector_94" stroke="#120071" stroke-linecap="round" stroke-linejoin="round" d="m144.399375 113.14941 -5.25559 9.282355" stroke-width="1"></path><path id="Vector_95" stroke="#120071" stroke-linecap="round" stroke-linejoin="round" d="M136.270225 117.93237500000001c2.4078999999999997 0 5.34713 -1.55419 7.27743 -3.686475 1.4815550000000002 -1.622845 2.363125 -3.704385 2.496455 -5.89836" stroke-width="1"></path><path id="Vector_96" stroke="#120071" stroke-linecap="round" stroke-linejoin="round" d="M166.89632500000002 30.704705c2.4775500000000004 3.14818 3.82279 7.0386299999999995 3.81881 11.0445v15.668265" stroke-width="1"></path><path id="Vector_97" stroke="#120071" stroke-linecap="round" stroke-linejoin="round" d="M158.14330999999999 24.692915c-1.7104050000000002 -0.5196885 -3.48648 -0.7901295 -5.273499999999999 -0.802965H44.656595c-2.345613 -0.001393 -4.6686395 0.4593915 -6.8361475 1.3560855 -2.1675079999999998 0.8965945 -4.137011 2.2115865 -5.7961735 3.8698535 -1.659063 1.6581675 -2.9751495 3.626974 -3.8730375 5.7939845000000005 -0.897888 2.1670105 -1.359966 4.4897385 -1.3598665 6.8353515v23.290960000000002" stroke-width="1"></path><path id="Vector_98" stroke="#120071" stroke-linecap="round" stroke-linejoin="round" d="M172.36882500000002 24.257105000000003c-0.331335 -0.036815 -0.58307 -0.076615 -0.71839 -0.44377 -0.18706 -0.4975 -0.520385 -0.9154 -0.0995 -1.3522049999999999 0.39402000000000004 -0.394617 0.615905 -0.9296285 0.615905 -1.4875250000000002 0 -0.5578965 -0.221885 -1.092908 -0.615905 -1.4875250000000002l-1.0198749999999999 -0.995c-0.19502 -0.1955175 -0.426855 -0.3505385 -0.68257 -0.4564065 -0.25472 -0.1057685 -0.5283450000000001 -0.16029449999999998 -0.8049550000000001 -0.16029449999999998s-0.550235 0.054526 -0.8049550000000001 0.16029449999999998c-0.255715 0.10586799999999999 -0.48755 0.260889 -0.68257 0.4564065 -0.41591 0.41591 -0.852715 0.082585 -1.33131 -0.104475 -0.13034500000000002 -0.049252500000000005 -0.24278 -0.137708 -0.32039 -0.253128 -0.078605 -0.11542000000000001 -0.11939999999999999 -0.2522325 -0.116415 -0.391632 0.000995 -0.276212 -0.052735 -0.549837 -0.158205 -0.805154 -0.10547 -0.255317 -0.26069000000000003 -0.4872515 -0.45571 -0.68257 -0.19502 -0.195219 -0.426855 -0.350041 -0.68257 -0.455312 -0.255715 -0.10537049999999999 -0.52934 -0.1592 -0.8049550000000001 -0.15840400000000002h-1.435785c-0.27661 -0.000796 -0.550235 0.0530335 -0.8049550000000001 0.15840400000000002 -0.255715 0.105271 -0.48755 0.260093 -0.68257 0.45541149999999997 -0.19502 0.1953185 -0.35024 0.427253 -0.45471500000000004 0.68257 -0.10547 0.255317 -0.1592 0.5289419999999999 -0.158205 0.8050545 0 0.582075 -0.54128 0.665655 -1.0198749999999999 0.87361 -0.12537 0.055123 -0.263675 0.0707445 -0.398 0.044774999999999995 -0.13333 -0.025969500000000003 -0.255715 -0.09233599999999999 -0.35123499999999996 -0.190045 -0.19502 -0.1955175 -0.426855 -0.3505385 -0.68257 -0.4564065 -0.25472 -0.1057685 -0.5283450000000001 -0.16029449999999998 -0.8049550000000001 -0.16029449999999998s-0.550235 0.054526 -0.8049550000000001 0.16029449999999998c-0.255715 0.10586799999999999 -0.48755 0.260889 -0.68257 0.4564065l-1.039775 1.01888c-0.196015 0.195219 -0.35024 0.4271535 -0.456705 0.682371 -0.10547 0.2552175 -0.160195 0.5288425 -0.160195 0.805154 0 0.2763115 0.054725 0.5499364999999999 0.160195 0.805154 0.106465 0.2552175 0.26069000000000003 0.487152 0.456705 0.682371 0.41591 0.41690499999999997 0.08358 0.85371 -0.104475 1.3522049999999999 -0.04975 0.1304445 -0.13731000000000002 0.2424815 -0.253725 0.3206885 -0.11542000000000001 0.078207 -0.251735 0.1187035 -0.391035 0.1161165 -0.27661 -0.000796 -0.550235 0.0530335 -0.8049550000000001 0.15840400000000002 -0.255715 0.105271 -0.48755 0.260093 -0.68257 0.455312 -0.196015 0.1953185 -0.35024 0.427253 -0.45571 0.68257 -0.10547 0.255317 -0.1592 0.5289419999999999 -0.158205 0.805154l0.020895 1.435785c-0.000995 0.276212 0.052735 0.549837 0.158205 0.805154 0.10547 0.255317 0.259695 0.4872515 0.45571 0.68257 0.19502 0.1953185 0.426855 0.350041 0.68257 0.455312 0.25472 0.10537049999999999 0.5283450000000001 0.1592 0.8049550000000001 0.15840400000000002 0.58307 0 0.665655 0.540285 0.87361 1.01888 0.059699999999999996 0.12726050000000003 0.078605 0.2703415 0.051739999999999994 0.4086465 -0.025869999999999997 0.138305 -0.094525 0.2647695 -0.19701000000000002 0.3614835 -0.196015 0.195219 -0.35024 0.4271535 -0.456705 0.682371 -0.10547 0.2552175 -0.160195 0.5288425 -0.160195 0.805154 0 0.2763115 0.054725 0.5499364999999999 0.160195 0.805154 0.106465 0.2552175 0.26069000000000003 0.487152 0.456705 0.682371l1.01888 1.01888c0.19502 0.19541799999999998 0.426855 0.350439 0.681575 0.456307 0.255715 0.1057685 0.5283450000000001 0.160195 0.8049550000000001 0.160195 0.275615 0 0.5492400000000001 -0.054426499999999996 0.8049550000000001 -0.160195 0.25472 -0.10586799999999999 0.486555 -0.260889 0.681575 -0.456307 0.41591 -0.41591 0.8547049999999999 -0.08557 1.334295 0.0995 0.13034500000000002 0.049551 0.241785 0.13800649999999998 0.32039 0.25332699999999997 0.07761 0.11542000000000001 0.118405 0.252133 0.116415 0.39143300000000003 -0.000995 0.2765105 0.052735 0.5505335 0.158205 0.806348 0.104475 0.255715 0.259695 0.4882465 0.45471500000000004 0.6840625 0.19502 0.1959155 0.426855 0.35133450000000005 0.68257 0.4574015 0.255715 0.10596749999999999 0.52934 0.16059299999999999 0.80595 0.16059299999999999l1.4556850000000001 -0.02786c0.275615 0.000796 0.5492400000000001 -0.0530335 0.8049550000000001 -0.1583045 0.255715 -0.10537049999999999 0.48755 -0.260093 0.68257 -0.45541149999999997 0.19502 -0.1953185 0.35024 -0.427253 0.45571 -0.68257 0.10547 -0.255317 0.1592 -0.5289419999999999 0.158205 -0.805154 0 -0.582075 0.54128 -0.665655 1.01888 -0.87361 0.12736 -0.0590035 0.269645 -0.0767145 0.40795 -0.0506455 0.138305 0.026069000000000002 0.26467 0.094525 0.36218 0.1959155 0.19502 0.1955175 0.426855 0.3505385 0.68257 0.4564065 0.25472 0.1057685 0.5283450000000001 0.16029449999999998 0.8049550000000001 0.16029449999999998s0.550235 -0.054526 0.8049550000000001 -0.16029449999999998c0.255715 -0.10586799999999999 0.48755 -0.260889 0.68257 -0.4564065l0.995 -1.01888c0.39402000000000004 -0.394617 0.615905 -0.9296285 0.615905 -1.4875250000000002 0 -0.5578965 -0.221885 -1.092908 -0.615905 -1.4875250000000002 -0.41690499999999997 -0.41690499999999997 -0.08358 -0.852715 0.0995 -1.3522049999999999 0.04975 -0.1302455 0.138305 -0.24208349999999998 0.25273 -0.32029050000000003 0.11542000000000001 -0.078207 0.25273 -0.118803 0.39203 -0.1165145 0.275615 0.000796 0.5492400000000001 -0.0530335 0.8049550000000001 -0.15840400000000002 0.255715 -0.105271 0.48755 -0.2599935 0.68257 -0.455312 0.19502 -0.1953185 0.35024 -0.427253 0.45571 -0.68257 0.10547 -0.255317 0.1592 -0.5289419999999999 0.158205 -0.805154v-1.4337950000000002c0 -0.5433695000000001 -0.21094 -1.0655455 -0.58904 -1.456282 -0.377105 -0.39083599999999996 -0.89152 -0.6195865 -1.43479 -0.638193v0Z" stroke-width="1"></path><path id="Vector_99" stroke="#120071" stroke-linecap="round" stroke-linejoin="round" d="M162.954135 32.42705c-1.0616649999999999 -0.000995 -2.098455 -0.3165095 -2.980025 -0.9067435 -0.882565 -0.5902339999999999 -1.5701100000000001 -1.428621 -1.9750750000000001 -2.4092930000000004 -0.40596 -0.980672 -0.51143 -2.05965 -0.30447 -3.10042 0.20695999999999998 -1.0408695000000001 0.71839 -1.9968655 1.46862 -2.747394 0.75023 -0.750429 1.706425 -1.2615605 2.747195 -1.4688189999999999 1.04077 -0.2072585 2.120345 -0.10139050000000001 3.10042 0.304271 0.98107 0.4056615 1.819855 1.092908 2.4098900000000003 1.9749755 0.590035 0.881968 0.90545 1.919156 0.9064450000000001 2.980423 0.0029850000000000002 0.7064499999999999 -0.13333 1.4064325 -0.402975 2.0597495 -0.26865 0.6532175 -0.66466 1.246735 -1.16415 1.7463245 -0.49949 0.49949 -1.09251 0.895102 -1.746225 1.1640504999999999 -0.6527200000000001 0.2689485 -1.3532000000000002 0.40586049999999996 -2.05965 0.4028755v0Z" stroke-width="1"></path><path id="Vector_100" stroke="#120071" stroke-linecap="round" stroke-linejoin="round" d="M61.9736745 65.036185c2.1664135 0.000796 4.2439735 0.861272 5.776472500000001 2.3924775 1.532499 1.5312055 2.394766 3.608069 2.3974525 5.7744824999999995v28.073925c0.000995 1.071615 -0.20924849999999998 2.134275 -0.6187905 3.1243000000000003 -0.409542 0.99102 -1.0104225 1.891495 -1.7681149999999999 2.649685 -0.757792 0.759185 -1.6575704999999998 1.360165 -2.6479935 1.7711000000000001 -0.9904229999999999 0.410935 -2.0519885 0.621875 -3.124101 0.621875h-43.231755c-2.166911 0 -4.245068 -0.860675 -5.778164 -2.3919799999999998s-2.3958605 -3.6078699999999997 -2.398746 -5.77498V73.20314499999999c-0.0010945 -1.0721124999999998 0.209149 -2.1339764999999997 0.6187905 -3.1247974999999997 0.409542 -0.9908210000000001 1.010323 -1.8911965 1.7681149999999999 -2.649685 0.7576925 -0.7584885 1.657471 -1.360165 2.647894 -1.770702 0.9904229999999999 -0.41053700000000004 2.0519885 -0.6217755 3.1242004999999997 -0.6217755h43.234739999999995Z" stroke-width="1"></path><path id="Vector_101" stroke="#120071" stroke-linecap="round" stroke-linejoin="round" d="M32.254915000000004 136.74285c-0.243576 0.000995 -0.482973 -0.062685 -0.693913 -0.18506999999999998 -0.21094 -0.12139 -0.38596050000000004 -0.29651 -0.507251 -0.50745 -0.1212905 -0.21193499999999998 -0.184473 -0.450735 -0.18317950000000002 -0.69451 0.001194 -0.243775 0.06686399999999999 -0.482575 0.1903435 -0.6925199999999999l8.110244999999999 -14.046415000000001c0.12119100000000001 -0.21094 0.2960125 -0.38705500000000004 0.506853 -0.508445 0.21074099999999998 -0.122385 0.45003849999999995 -0.18706 0.6936145 -0.18706 0.243576 0 0.4828735 0.064675 0.6936145 0.18706 0.21084050000000001 0.12139 0.385662 0.29750499999999996 0.506853 0.508445l8.110244999999999 14.046415000000001c0.1214895 0.209945 0.185667 0.448745 0.1859655 0.691525 0.000398 0.24278 -0.063083 0.48158 -0.18397550000000001 0.6925199999999999 -0.120992 0.209945 -0.29511699999999996 0.385065 -0.5049625 0.50745 -0.209945 0.122385 -0.44814800000000005 0.18706 -0.6910275 0.188055H32.254915000000004Z" stroke-width="1"></path><path id="Vector_102" stroke="#120071" stroke-linecap="round" stroke-linejoin="round" d="M123.47949999999999 85.41478c1.10644 0.25472 2.20094 0.4818785 3.2834999999999996 0.681575l-2.816845 5.86055" stroke-width="1"></path></g></g></svg>